<?xml version="1.0" encoding="utf-8"?>
<!-- Generator: Adobe Illustrator 18.0.0, SVG Export Plug-In . SVG Version: 6.00 Build 0)  -->
<!DOCTYPE svg PUBLIC "-//W3C//DTD SVG 1.1//EN" "http://www.w3.org/Graphics/SVG/1.1/DTD/svg11.dtd" [
	<!ENTITY ns_flows "http://ns.adobe.com/Flows/1.0/">
	<!ENTITY ns_extend "http://ns.adobe.com/Extensibility/1.0/">
	<!ENTITY ns_ai "http://ns.adobe.com/AdobeIllustrator/10.0/">
	<!ENTITY ns_graphs "http://ns.adobe.com/Graphs/1.0/">
]>
<svg version="1.1" id="Layer_1" xmlns:x="&ns_extend;" xmlns:i="&ns_ai;" xmlns:graph="&ns_graphs;"
	 xmlns="http://www.w3.org/2000/svg" xmlns:xlink="http://www.w3.org/1999/xlink" xmlns:a="http://ns.adobe.com/AdobeSVGViewerExtensions/3.0/"
	 x="0px" y="0px" viewBox="0 0 2272 1872" enable-background="new 0 0 2272 1872" xml:space="preserve">
<g>
	<defs>
		<rect id="SVGID_1_" width="2272" height="1872"/>
	</defs>
	<clipPath id="SVGID_2_">
		<use xlink:href="#SVGID_1_"  overflow="visible"/>
	</clipPath>
	<g clip-path="url(#SVGID_2_)">
		<rect x="1.3" fill="#BADCF4" width="2272" height="1872"/>
		<path fill="#A0C3BC" d="M-228.7,1486.5c49.1-20.3,98.4-39.6,148.1-57.8c-14.8-40.3-29.5-80.5-44.3-120.8
			c41.5,6.8,82.6,14.4,123.2,22.6c12.5,37.3,25,74.7,37.5,112c16.5-5.5,33.1-11,49.6-16.3c-5.4-16.8-10.8-33.7-16.2-50.5
			c4.2-7.6,8.5-15.1,12.8-22.7c28.4-8.9,56.9-17.5,85.4-25.8c8.8,2.6,17.7,5.2,26.5,7.8c1.3,4.5,2.5,8.9,3.8,13.4
			c21.4-6.7,43-13.2,64.5-19.6c-8.2-31.2-16.5-62.4-24.7-93.6c33.4-8.8,66.9-17.2,100.4-25.1c8.3,35.3,16.6,70.5,24.9,105.8
			c23.1-5.4,46.3-10.7,69.4-15.7c-2.8-13-5.6-26-8.4-39c31-6.7,62.1-13,93.2-18.9c8.5,44.5,16.9,89,25.4,133.5
			c8.7-1.7,17.4-3.3,26-4.9c-5.9-32.5-11.9-65-17.8-97.4c14.1-27.6,28.5-55.2,43.4-82.7c12.5,74.4,25,148.7,37.4,223.1
			c3.8-3.9,7.5-7.8,11.3-11.6c-6.7-41.1-13.5-82.2-20.2-123.3c7-11.1,14-22.2,21.1-33.3c35.2-5.5,70.5-10.6,105.8-15.1
			c9.1,5.3,18.2,10.6,27.3,16c1.6,12.8,3.1,25.7,4.7,38.5c4.4-0.5,8.7-1.1,13.1-1.6c-3.8-32.1-7.6-64.1-11.4-96.2
			c33.6-4,67.2-7.5,100.9-10.6c3.3,36.1,6.6,72.1,10,108.2c23.2-2.1,46.4-4,69.6-5.7c-2.1-28.6-4.2-57.3-6.3-85.9
			c31.4-2.3,62.9-4.2,94.3-5.7c2.1,42.5,4.1,84.9,6.2,127.4c7.4-28.5,15-56.9,22.9-85.3c-1.4-33-2.7-66-4.1-99
			c18.1-25.4,36.6-50.7,55.5-75.9c2,75.4,4,150.8,6.1,226.1c4.3-3.3,8.7-6.6,13.1-9.9c-1-41.6-1.9-83.3-2.9-124.9
			c8.6-10.1,17.3-20.1,26-30.1c36.3-0.6,72.6-0.7,108.9-0.3c8.1,6.2,16.2,12.5,24.2,18.8c-0.4,23.5-0.8,47-1.2,70.5
			c6.9,0.1,13.9,0.3,20.8,0.4c1-42.9,2-85.7,3-128.6c35.5,21.5,70.4,43.5,104.7,66c-2,39.3-4,78.6-6,118c17.1,0.9,34.3,1.8,51.4,2.9
			c1.1-17.6,2.3-35.3,3.4-52.9c6.6-5.5,13.3-11,20-16.5c29.3,2,58.6,4.4,87.9,7.1c7.2,5.6,14.4,11.2,21.5,16.9
			c-0.5,4.6-0.9,9.2-1.4,13.8c22.2,1.5,44.4,3.3,66.6,5.2c3.7-32.1,7.4-64.1,11.2-96.2c34,3.9,68,8.3,101.9,13.2
			c-5.1,35.9-10.2,71.7-15.3,107.6c23.4,3.3,46.7,6.9,70,10.6c2.1-13.1,4.2-26.3,6.4-39.4c31.2,5,62.3,10.5,93.4,16.3
			c-8.3,44.5-16.7,89-25,133.6c8.7,1.6,17.3,3.3,26,4.9c6.3-32.4,12.6-64.8,18.9-97.2c23.1-20.6,46.6-41,70.4-61.2
			c-15.5,73.8-31,147.6-46.5,221.4c4.9-2.2,9.8-4.5,14.8-6.7c8.7-40.7,17.4-81.5,26.1-122.2c10.5-7.8,21.1-15.6,31.8-23.4
			c34.8,7.7,69.5,15.9,104.2,24.5c6.6,8.3,13.1,16.5,19.6,24.8c-3.2,12.5-6.5,25.1-9.7,37.6c4.3,1.1,8.5,2.2,12.8,3.3
			c8.2-31.2,16.3-62.5,24.5-93.7c32.9,8.6,65.6,17.6,98.3,27.1c-10.1,34.8-20.1,69.6-30.2,104.4c22.5,6.5,44.9,13.2,67.3,20.2
			c8.5-27.4,17-54.9,25.5-82.3c30.3,9.4,60.6,19.2,90.7,29.4c-13.6,40.3-27.2,80.6-40.8,120.9c17.4-23.8,35-47.4,52.7-71
			c10.8-31.2,21.6-62.4,32.3-93.6c26.4-17,53-33.7,80-50.1c-25.7,70.9-51.4,141.8-77,212.7c5.3-1.5,10.6-3,16-4.4
			c14.3-39.1,28.6-78.2,43-117.3c11.8-6.2,23.6-12.3,35.5-18.4c34.5,12.9,68.8,26.3,103,40.2c5.4,8.8,10.7,17.6,16,26.5
			c-35.9,86.8-71.9,173.5-107.8,260.3c-159.5-66.1-322.5-120.2-487.9-162.4c0-0.1,0.1-0.3,0.1-0.4
			c-313.2-80-634.6-117.1-955.5-111.4c-0.1-3-0.1-6.1-0.2-9.1c-127.1,2.2-254.2,11.2-380.6,26.9c0-0.1,0-0.3,0-0.4
			c-319.8,39.6-635.6,122.2-938.6,247.7C-172.7,1622.2-200.7,1554.3-228.7,1486.5z"/>
		<path fill="#8EADA7" d="M2591.1,1521.4c-49.1-20.3-98.4-39.6-148.1-57.8c14.8-40.3,29.5-80.5,44.3-120.8
			c-41.5,6.8-82.6,14.4-123.2,22.6c-12.5,37.3-25,74.7-37.5,112c-16.5-5.5-33.1-11-49.6-16.3c5.4-16.8,10.8-33.7,16.2-50.5
			c-4.2-7.6-8.5-15.1-12.8-22.7c-28.4-8.9-56.9-17.5-85.4-25.8c-8.8,2.6-17.7,5.2-26.5,7.8c-1.3,4.5-2.5,8.9-3.8,13.4
			c-21.4-6.7-43-13.2-64.5-19.6c8.2-31.2,16.5-62.4,24.7-93.6c-33.4-8.8-66.9-17.2-100.4-25.1c-8.3,35.3-16.6,70.5-24.9,105.8
			c-23.1-5.4-46.3-10.7-69.4-15.7c2.8-13,5.6-26,8.4-39c-31-6.7-62.1-13-93.2-18.9c-8.5,44.5-16.9,89-25.4,133.5
			c-8.7-1.7-17.4-3.3-26-4.9c5.9-32.5,11.9-65,17.8-97.4c-14.1-27.6-28.5-55.2-43.4-82.7c-12.5,74.4-25,148.7-37.4,223.1
			c-3.8-3.9-7.5-7.8-11.3-11.6c6.7-41.1,13.5-82.2,20.2-123.3c-7-11.1-14-22.2-21.1-33.3c-35.2-5.5-70.5-10.6-105.8-15.1
			c-9.1,5.3-18.2,10.6-27.3,16c-1.6,12.8-3.1,25.7-4.7,38.5c-4.4-0.5-8.7-1.1-13.1-1.6c3.8-32.1,7.6-64.1,11.4-96.2
			c-33.6-4-67.2-7.5-100.9-10.6c-3.3,36.1-6.6,72.1-10,108.2c-23.2-2.1-46.4-4-69.6-5.7c2.1-28.6,4.2-57.3,6.3-85.9
			c-31.4-2.3-62.9-4.2-94.3-5.7c-2.1,42.5-4.1,84.9-6.2,127.4c-7.4-28.5-15-56.9-22.9-85.3c1.4-33,2.7-66,4.1-99
			c-18.1-25.4-36.6-50.7-55.5-75.9c-2,75.4-4,150.8-6.1,226.1c-4.3-3.3-8.7-6.6-13.1-9.9c1-41.6,1.9-83.3,2.9-124.9
			c-8.6-10.1-17.3-20.1-26-30.1c-36.3-0.6-72.6-0.7-108.9-0.3c-8.1,6.2-16.2,12.5-24.2,18.8c0.4,23.5,0.8,47,1.2,70.5
			c-6.9,0.1-13.9,0.3-20.8,0.4c-1-42.9-2-85.7-3-128.6c-35.5,21.5-70.4,43.5-104.7,66c2,39.3,4,78.6,6,118
			c-17.1,0.9-34.3,1.8-51.4,2.9c-1.1-17.6-2.3-35.3-3.4-52.9c-6.6-5.5-13.3-11-20-16.5c-29.3,2-58.6,4.4-87.9,7.1
			c-7.2,5.6-14.4,11.2-21.5,16.9c0.5,4.6,0.9,9.2,1.4,13.8c-22.2,1.5-44.4,3.3-66.6,5.2c-3.7-32.1-7.4-64.1-11.2-96.2
			c-34,3.9-68,8.3-101.9,13.2c5.1,35.9,10.2,71.7,15.3,107.6c-23.4,3.3-46.7,6.9-70,10.6c-2.1-13.1-4.2-26.3-6.4-39.4
			c-31.2,5-62.3,10.5-93.4,16.3c8.3,44.5,16.7,89,25,133.6c-8.7,1.6-17.3,3.3-26,4.9c-6.3-32.4-12.6-64.8-18.9-97.2
			c-23.1-20.6-46.6-41-70.4-61.2c15.5,73.8,31,147.6,46.5,221.4c-4.9-2.2-9.8-4.5-14.8-6.7c-8.7-40.7-17.4-81.5-26.1-122.2
			c-10.5-7.8-21.1-15.6-31.8-23.4c-34.8,7.7-69.5,15.9-104.2,24.5c-6.6,8.3-13.1,16.5-19.6,24.8c3.2,12.5,6.5,25.1,9.7,37.6
			c-4.3,1.1-8.5,2.2-12.8,3.3c-8.2-31.2-16.3-62.5-24.5-93.7c-32.9,8.6-65.6,17.6-98.3,27.1c10.1,34.8,20.1,69.6,30.2,104.4
			c-22.5,6.5-44.9,13.2-67.3,20.2c-8.5-27.4-17-54.9-25.5-82.3c-30.3,9.4-60.6,19.2-90.7,29.4c13.6,40.3,27.2,80.6,40.8,120.9
			c-17.4-23.8-35-47.4-52.7-71c-10.8-31.2-21.6-62.4-32.3-93.6c-26.4-17-53-33.7-80-50.1c25.7,70.9,51.4,141.8,77,212.7
			c-5.3-1.5-10.6-3-16-4.4c-14.3-39.1-28.6-78.2-43-117.3c-11.8-6.2-23.6-12.3-35.5-18.4c-34.5,12.9-68.8,26.3-103,40.2
			c-5.4,8.8-10.7,17.6-16,26.5c35.9,86.8,71.9,173.5,107.8,260.3c159.5-66.1,322.5-120.2,487.9-162.4c0-0.1-0.1-0.3-0.1-0.4
			c313.2-80,634.6-117.1,955.5-111.4c0.1-3,0.1-6.1,0.2-9.1c127.1,2.2,254.2,11.2,380.6,26.9c0-0.1,0-0.3,0-0.4
			c319.8,39.6,635.6,122.2,938.6,247.7C2535.1,1657.2,2563.1,1589.3,2591.1,1521.4z"/>
		<g>
			<polygon fill="#6E9B9A" points="1571.3,848.1 1571.3,827.7 1493.2,827.7 1493.2,848.1 1479.7,848.1 1479.7,1281.4 1409.1,1283.7 
				1409.1,859.3 1409.1,749.3 1328.5,749.3 1328.5,872.8 1271.4,872.8 1271.4,827.4 1195.8,827.4 1195.8,1237.2 1173.9,1237.2 
				1173.9,739.6 1110.4,655.6 1110.4,960.6 1073.6,969.4 1073.6,748 1052.6,714.4 966.9,714.4 946.8,736.2 946.8,872.5 924,872.5 
				889,872.5 889,837.3 871.6,804.8 779.2,804.8 754.2,832.3 754.2,910.5 754.2,938.3 632.1,938.3 632.1,1521.2 754.2,1521.2 
				774.5,1521.2 860.8,1521.2 889,1521.2 946.8,1521.2 978.1,1521.2 1592.5,1521.2 1592.5,1002.7 1592.5,931.6 1592.5,848.1 			"/>
			<g>
				<rect x="776.3" y="850.1" fill="#E6F4F5" width="19.7" height="580.7"/>
				<rect x="811.8" y="850.1" fill="#E6F4F5" width="19.7" height="580.7"/>
				<rect x="847.4" y="850.1" fill="#E6F4F5" width="19.7" height="580.7"/>
			</g>
			<rect x="1527.7" y="870.5" fill="#E6F4F5" width="17" height="41.9"/>
			<rect x="1495.7" y="870.5" fill="#E6F4F5" width="17" height="41.9"/>
			<rect x="1556.7" y="870.5" fill="#E6F4F5" width="17" height="41.9"/>
			<rect x="1527.7" y="929.9" fill="#E6F4F5" width="17" height="41.9"/>
			<rect x="1495.7" y="929.9" fill="#E6F4F5" width="17" height="41.9"/>
			<rect x="1556.7" y="929.9" fill="#E6F4F5" width="17" height="41.9"/>
			<rect x="1527.7" y="989.2" fill="#E6F4F5" width="17" height="41.9"/>
			<rect x="1495.7" y="989.2" fill="#E6F4F5" width="17" height="41.9"/>
			<rect x="1556.7" y="989.2" fill="#E6F4F5" width="17" height="41.9"/>
			<rect x="1527.7" y="1048.6" fill="#E6F4F5" width="17" height="41.9"/>
			<rect x="1495.7" y="1048.6" fill="#E6F4F5" width="17" height="41.9"/>
			<rect x="1556.7" y="1048.6" fill="#E6F4F5" width="17" height="41.9"/>
			<rect x="1527.7" y="1107.9" fill="#E6F4F5" width="17" height="41.9"/>
			<rect x="1495.7" y="1107.9" fill="#E6F4F5" width="17" height="41.9"/>
			<rect x="1556.7" y="1107.9" fill="#E6F4F5" width="17" height="41.9"/>
			<rect x="1527.7" y="1167.3" fill="#E6F4F5" width="17" height="41.9"/>
			<rect x="1495.7" y="1167.3" fill="#E6F4F5" width="17" height="41.9"/>
			<rect x="1556.7" y="1167.3" fill="#E6F4F5" width="17" height="41.9"/>
			<rect x="1527.7" y="1226.6" fill="#E6F4F5" width="17" height="41.9"/>
			<rect x="1495.7" y="1226.6" fill="#E6F4F5" width="17" height="41.9"/>
			<rect x="1556.7" y="1226.6" fill="#E6F4F5" width="17" height="41.9"/>
			<rect x="1527.7" y="1286" fill="#E6F4F5" width="17" height="41.9"/>
			<rect x="1495.7" y="1286" fill="#E6F4F5" width="17" height="41.9"/>
			<rect x="1556.7" y="1286" fill="#E6F4F5" width="17" height="41.9"/>
			<rect x="1527.7" y="1345.4" fill="#E6F4F5" width="17" height="41.9"/>
			<rect x="1495.7" y="1345.4" fill="#E6F4F5" width="17" height="41.9"/>
			<rect x="1556.7" y="1345.4" fill="#E6F4F5" width="17" height="41.9"/>
			<rect x="1527.7" y="1404.7" fill="#E6F4F5" width="17" height="41.9"/>
			<rect x="1495.7" y="1404.7" fill="#E6F4F5" width="17" height="41.9"/>
			<rect x="1556.7" y="1404.7" fill="#E6F4F5" width="17" height="41.9"/>
			<rect x="1207.8" y="891.5" fill="#E6F4F5" width="120.3" height="10.3"/>
			<rect x="1207.8" y="913.1" fill="#E6F4F5" width="120.3" height="10.3"/>
			<rect x="1207.8" y="934.8" fill="#E6F4F5" width="120.3" height="10.3"/>
			<rect x="1207.8" y="956.4" fill="#E6F4F5" width="120.3" height="10.3"/>
			<rect x="1207.8" y="978.1" fill="#E6F4F5" width="120.3" height="10.3"/>
			<rect x="1207.8" y="999.7" fill="#E6F4F5" width="120.3" height="10.3"/>
			<rect x="1207.8" y="1021.4" fill="#E6F4F5" width="120.3" height="10.3"/>
			<rect x="1207.8" y="1043" fill="#E6F4F5" width="120.3" height="10.3"/>
			<rect x="1207.8" y="1064.7" fill="#E6F4F5" width="120.3" height="10.3"/>
			<rect x="1207.8" y="1086.3" fill="#E6F4F5" width="120.3" height="10.3"/>
			<rect x="1207.8" y="1107.9" fill="#E6F4F5" width="120.3" height="10.3"/>
			<rect x="1207.8" y="1129.6" fill="#E6F4F5" width="120.3" height="10.3"/>
			<rect x="1207.8" y="1151.2" fill="#E6F4F5" width="120.3" height="10.3"/>
			<rect x="1207.8" y="1172.9" fill="#E6F4F5" width="120.3" height="10.3"/>
			<rect x="1207.8" y="1194.5" fill="#E6F4F5" width="120.3" height="10.3"/>
			<rect x="1207.8" y="1216.2" fill="#E6F4F5" width="120.3" height="10.3"/>
			<rect x="1207.8" y="1237.8" fill="#E6F4F5" width="120.3" height="10.3"/>
			<rect x="1207.8" y="1259.5" fill="#E6F4F5" width="120.3" height="10.3"/>
			<rect x="1207.8" y="1281.1" fill="#E6F4F5" width="120.3" height="10.3"/>
			<rect x="1207.8" y="1302.8" fill="#E6F4F5" width="120.3" height="10.3"/>
			<rect x="1207.8" y="1324.4" fill="#E6F4F5" width="120.3" height="10.3"/>
			<rect x="1207.8" y="1346.1" fill="#E6F4F5" width="120.3" height="10.3"/>
			<rect x="1207.8" y="1367.7" fill="#E6F4F5" width="120.3" height="10.3"/>
			<rect x="1207.8" y="1389.4" fill="#E6F4F5" width="120.3" height="10.3"/>
			<rect x="1207.8" y="1411" fill="#E6F4F5" width="120.3" height="10.3"/>
			<rect x="1207.8" y="1432.7" fill="#E6F4F5" width="120.3" height="10.3"/>
			<rect x="1207.8" y="1454.3" fill="#E6F4F5" width="120.3" height="10.3"/>
			<rect x="1207.8" y="1476" fill="#E6F4F5" width="120.3" height="10.3"/>
			<rect x="1207.8" y="865.4" fill="#E6F4F5" width="49.3" height="10.3"/>
			<rect x="1207.8" y="844.2" fill="#E6F4F5" width="49.3" height="10.3"/>
			<rect x="957.6" y="747.8" fill="#E6F4F5" width="103.2" height="18.1"/>
			<rect x="957.6" y="781" fill="#E6F4F5" width="103.2" height="18.1"/>
			<rect x="957.6" y="814.2" fill="#E6F4F5" width="103.2" height="18.1"/>
			<rect x="957.6" y="847.4" fill="#E6F4F5" width="103.2" height="18.1"/>
			<rect x="957.6" y="880.6" fill="#E6F4F5" width="103.2" height="18.1"/>
			<rect x="957.6" y="913.8" fill="#E6F4F5" width="103.2" height="18.1"/>
			<rect x="957.6" y="947.1" fill="#E6F4F5" width="103.2" height="18.1"/>
			<rect x="1120.5" y="711.5" fill="#E6F4F5" width="13.6" height="13.6"/>
			<rect x="1120.5" y="741" fill="#E6F4F5" width="13.6" height="13.6"/>
			<rect x="1144.6" y="741" fill="#E6F4F5" width="13.6" height="13.6"/>
			<rect x="1120.5" y="765.9" fill="#E6F4F5" width="13.6" height="13.6"/>
			<rect x="1144.6" y="765.9" fill="#E6F4F5" width="13.6" height="13.6"/>
			<rect x="1120.5" y="790.8" fill="#E6F4F5" width="13.6" height="13.6"/>
			<rect x="1144.6" y="790.8" fill="#E6F4F5" width="13.6" height="13.6"/>
			<rect x="1120.5" y="815.7" fill="#E6F4F5" width="13.6" height="13.6"/>
			<rect x="1144.6" y="815.7" fill="#E6F4F5" width="13.6" height="13.6"/>
			<rect x="1120.5" y="840.6" fill="#E6F4F5" width="13.6" height="13.6"/>
			<rect x="1144.6" y="840.6" fill="#E6F4F5" width="13.6" height="13.6"/>
			<rect x="1120.5" y="865.5" fill="#E6F4F5" width="13.6" height="13.6"/>
			<rect x="652.8" y="958" fill="#E6F4F5" width="23" height="23"/>
			<rect x="690.2" y="958" fill="#E6F4F5" width="23" height="23"/>
			<rect x="727.5" y="958" fill="#E6F4F5" width="23" height="23"/>
			<rect x="652.8" y="998.5" fill="#E6F4F5" width="23" height="23"/>
			<rect x="690.2" y="998.5" fill="#E6F4F5" width="23" height="23"/>
			<rect x="727.5" y="998.5" fill="#E6F4F5" width="23" height="23"/>
			<rect x="652.8" y="1039" fill="#E6F4F5" width="23" height="23"/>
			<rect x="690.2" y="1039" fill="#E6F4F5" width="23" height="23"/>
			<rect x="727.5" y="1039" fill="#E6F4F5" width="23" height="23"/>
			<rect x="652.8" y="1079.6" fill="#E6F4F5" width="23" height="23"/>
			<rect x="690.2" y="1079.6" fill="#E6F4F5" width="23" height="23"/>
			<rect x="727.5" y="1079.6" fill="#E6F4F5" width="23" height="23"/>
			<rect x="652.8" y="1120.1" fill="#E6F4F5" width="23" height="23"/>
			<rect x="690.2" y="1120.1" fill="#E6F4F5" width="23" height="23"/>
			<rect x="727.5" y="1120.1" fill="#E6F4F5" width="23" height="23"/>
			<rect x="652.8" y="1160.6" fill="#E6F4F5" width="23" height="23"/>
			<rect x="690.2" y="1160.6" fill="#E6F4F5" width="23" height="23"/>
			<rect x="727.5" y="1160.6" fill="#E6F4F5" width="23" height="23"/>
			<rect x="652.8" y="1201.2" fill="#E6F4F5" width="23" height="23"/>
			<rect x="690.2" y="1201.2" fill="#E6F4F5" width="23" height="23"/>
			<rect x="727.5" y="1201.2" fill="#E6F4F5" width="23" height="23"/>
			<rect x="652.8" y="1241.7" fill="#E6F4F5" width="23" height="23"/>
			<rect x="690.2" y="1241.7" fill="#E6F4F5" width="23" height="23"/>
			<rect x="727.5" y="1241.7" fill="#E6F4F5" width="23" height="23"/>
			<rect x="652.8" y="1282.3" fill="#E6F4F5" width="23" height="23"/>
			<rect x="690.2" y="1282.3" fill="#E6F4F5" width="23" height="23"/>
			<rect x="727.5" y="1282.3" fill="#E6F4F5" width="23" height="23"/>
			<rect x="652.8" y="1322.8" fill="#E6F4F5" width="23" height="23"/>
			<rect x="690.2" y="1322.8" fill="#E6F4F5" width="23" height="23"/>
			<rect x="727.5" y="1322.8" fill="#E6F4F5" width="23" height="23"/>
			<rect x="1144.6" y="865.5" fill="#E6F4F5" width="13.6" height="13.6"/>
			<rect x="1120.5" y="890.4" fill="#E6F4F5" width="13.6" height="13.6"/>
			<rect x="1144.6" y="890.4" fill="#E6F4F5" width="13.6" height="13.6"/>
			<rect x="1120.5" y="915.4" fill="#E6F4F5" width="13.6" height="13.6"/>
			<rect x="1144.6" y="915.4" fill="#E6F4F5" width="13.6" height="13.6"/>
			<rect x="1120.5" y="940.3" fill="#E6F4F5" width="13.6" height="13.6"/>
			<rect x="1144.6" y="940.3" fill="#E6F4F5" width="13.6" height="13.6"/>
			<rect x="1120.5" y="965.2" fill="#E6F4F5" width="13.6" height="13.6"/>
			<rect x="1144.6" y="965.2" fill="#E6F4F5" width="13.6" height="13.6"/>
			<rect x="1120.5" y="990.1" fill="#E6F4F5" width="13.6" height="13.6"/>
			<rect x="1144.6" y="990.1" fill="#E6F4F5" width="13.6" height="13.6"/>
			<rect x="1120.5" y="1015" fill="#E6F4F5" width="13.6" height="13.6"/>
			<rect x="1144.6" y="1015" fill="#E6F4F5" width="13.6" height="13.6"/>
			<rect x="1120.5" y="1039.9" fill="#E6F4F5" width="13.6" height="13.6"/>
			<rect x="1144.6" y="1039.9" fill="#E6F4F5" width="13.6" height="13.6"/>
			<rect x="1120.5" y="1064.8" fill="#E6F4F5" width="13.6" height="13.6"/>
			<rect x="1144.6" y="1064.8" fill="#E6F4F5" width="13.6" height="13.6"/>
		</g>
		<g>
			<circle fill="#F7ED4D" cx="1685.2" cy="607.2" r="69.5"/>
		</g>
		<path fill="#7E8D94" d="M0,1600.5c0,0,1173.1-327.2,2272,0V1872H0V1600.5z"/>
		<rect x="1123.5" y="1481.6" fill="#FCB13D" width="47.8" height="219"/>
		<rect x="1123.5" y="1756.5" fill="#FCB13D" width="47.8" height="103.5"/>
		<path fill="#7E8D94"  a:adobe-blending-mode="multiply" d="M1603,1658.5l-137.5-137.7l-329.6-15.3l-329.6,15.3L669,1658.5
			c-10.7,10.7-3.1,29,12,29h455h455C1606.1,1687.5,1613.7,1669.2,1603,1658.5z"/>
		<g>
			<g>
				<g>
					<path fill="#EC9322" d="M1518.3,1309.1c0,0-30.8-172.5-123.2-234.1c-82.9-55.3-228.7-61.7-257.8-58.2
						c-29-3.5-174.8,2.9-257.8,58.2c-92.4,61.6-123.2,234.1-123.2,234.1h37l344-46.5l344,46.5H1518.3z"/>
				</g>
			</g>
			<g>
				<g>
					<path fill="#84A1A9" d="M1488.1,1309.1c0,0-28.4-158.8-113.5-215.6c-76.4-50.9-210.6-56.8-237.3-53.6
						c-26.7-3.2-160.9,2.6-237.3,53.6c-85.1,56.7-113.5,215.6-113.5,215.6h34l316.7-42.9l316.7,42.9H1488.1z"/>
				</g>
			</g>
			<g>
				<g>
					<path fill="#231F20" d="M1559.7,1636.3c0,49.9-35.8,48.6-80.1,48.6l0,0c-44.2,0-80.1,1.2-80.1-48.6v-66.4
						c0-49.9,35.8-90.3,80.1-90.3l0,0c44.2,0,80.1,40.4,80.1,90.3V1636.3z"/>
				</g>
			</g>
			<g>
				<g>
					<path fill="#231F20" d="M869.5,1636.3c0,49.9-35.8,48.6-80.1,48.6l0,0c-44.2,0-80.1,1.2-80.1-48.6v-66.4
						c0-49.9,35.8-90.3,80.1-90.3l0,0c44.2,0,80.1,40.4,80.1,90.3V1636.3z"/>
				</g>
			</g>
			<g>
				<g>
					<path fill="#FDBE12" d="M1566.6,1326.2c-24.6-30.1-79.4-46.6-79.4-46.6c-101.3-57.5-353.3-54.8-353.3-54.8s-252-2.7-353.3,54.8
						c0,0-54.8,16.4-79.4,46.6c-24.6,30.1-16.4,104.1-16.4,178c0,0,0,39.7,0,58.9c0,19.2,2.7,75.3,72.6,75.3c69.8,0,150.6,0,150.6,0
						v-15.1h451.9v15.1c0,0,80.8,0,150.6,0c69.8,0,72.6-56.1,72.6-75.3c0-19.2,0-58.9,0-58.9
						C1583,1430.3,1591.2,1356.4,1566.6,1326.2z"/>
				</g>
			</g>
			<path fill="#6C6C6C" d="M1118.4,1431.3c0-5.4-4.4-9.7-9.8-9.6c-44.7,1.1-151,3.6-167.1,3.6c-20.5,0-31.5,5.5-23.3,20.5
				c8.2,15.1,37,72.6,67.1,72.6h97.6c19.6,0,35.6-15.9,35.6-35.6V1431.3z"/>
			<path fill="#6C6C6C" d="M1315.3,1425.3c-16.1,0-122.4-2.5-167.1-3.6c-5.4-0.1-9.8,4.2-9.8,9.6v51.6c0,19.6,15.9,35.6,35.6,35.6
				h97.6c30.1,0,58.9-57.5,67.1-72.6C1346.8,1430.8,1335.8,1425.3,1315.3,1425.3z"/>
			<path fill="#6C6C6C" d="M1372.3,1548.7H884.5c-4.9,0-8.4,4.9-6.6,9.6c4.3,11.3,11.6,29.3,17.1,35.6c8.2,9.4,233.5,7.5,233.5,7.5
				s225.2,1.9,233.5-7.5c5.5-6.3,12.8-24.3,17.1-35.6C1380.6,1553.7,1377.2,1548.7,1372.3,1548.7z"/>
			<g>
				<g>
					<path fill="#EC9322" d="M897.6,1622h-28.8l-24.6-24.6c0,0-12.3,0-60.2,0c-47.9,0-80.8-17.8-80.8-41.1c0-23.3,0-52,0-52h-15.1
						c0,0,0,39.7,0,58.9c0,19.2,2.7,75.3,72.6,75.3c69.8,0,150.6,0,150.6,0v-2.7L897.6,1622z"/>
				</g>
			</g>
			<g>
				<g>
					<path fill="#EC9322" d="M1378.3,1622h28.7l24.6-24.6c0,0,12.3,0,60.3,0c47.9,0,80.8-17.8,80.8-41.1c0-23.3,0-52,0-52h15.1
						c0,0,0,39.7,0,58.9c0,19.2-2.7,75.3-72.6,75.3c-69.8,0-150.6,0-150.6,0v-2.7L1378.3,1622z"/>
				</g>
			</g>
			<g>
				<g>
					<path fill="#EC9322" d="M1486.8,1225.1c27.5-1.1,95.9,0.4,101.7,43.2c0.6,4.3-2.1,8.4-6.3,9.4c-9.1,2.3-30.5,4.9-80.7,5.1
						c-3.6,0-6.9-2.3-8.1-5.7l-14.3-40.6C1477.3,1231.1,1481.1,1225.4,1486.8,1225.1z"/>
					<path fill="#EC9322" d="M787.7,1225.1c-27.5-1.1-95.9,0.4-101.7,43.2c-0.6,4.3,2.1,8.4,6.3,9.4c9.1,2.3,30.5,4.9,80.7,5.1
						c3.6,0,6.9-2.3,8.1-5.7l14.3-40.6C797.3,1231.1,793.5,1225.4,787.7,1225.1z"/>
				</g>
			</g>
			<g>
				<g>
					<path fill="#DDE0E7" d="M1537.4,1366.5c-1.5,2.1-3.5,4.1-5.8,6.1c0,0,0,0,0.1,0c-19.3,16.6-65.2,30.3-95.6,38c0,0,0,0,0,0
						c-12,3-21.6,5.1-26.1,6.1c-1.7,0.4-3.1,1.6-3.6,3.3l-24.9,75.4c-1.2,3.6,1.7,7.1,5.5,6.7c19.8-2.4,72.2-9.7,111-23
						c0.2-0.1,0.4-0.1,0.6-0.2c0.1,0,0.3-0.1,0.4-0.1c0.8-0.3,1.6-0.5,2.4-0.8c0.1,0,0.2-0.1,0.3-0.1c1.8-0.6,3.6-1.3,5.4-2
						c0.1,0,0.2-0.1,0.3-0.1c0.9-0.3,1.7-0.7,2.6-1.1c0,0,0,0,0,0c0.9-0.4,1.8-0.8,2.7-1.2c0,0,0,0,0,0c0.9-0.4,1.7-0.8,2.6-1.2
						c0.1,0,0.2-0.1,0.2-0.1c1.7-0.8,3.4-1.7,5.1-2.6c0,0,0.1,0,0.1,0c0.6-0.3,1.3-0.7,1.9-1c0.1-0.1,0.2-0.1,0.3-0.2
						c0.1,0,0.1-0.1,0.2-0.1c0,0,0,0,0.1,0c0.4-0.2,0.8-0.5,1.3-0.7c0,0,0,0,0,0c1.2-0.7,2.4-1.4,3.6-2.2c0,0,0.1,0,0.1-0.1
						c2.3-1.5,4.6-3,6.7-4.7c0,0,0,0,0.1,0c11.1-8.5,18.8-18.9,20.2-30.9C1559.3,1393.9,1537.4,1366.5,1537.4,1366.5z"/>
					<path fill="#A1CCE4" d="M1489.7,1394.2c-10.6,3.9-21.7,7.4-32.2,10.5c-10.6,8.6-17.3,21.7-17.3,36.4c0,21.2,14.1,39.1,33.4,45
						c8.5-2.2,16.8-4.6,24.5-7.3c0.2-0.1,0.4-0.1,0.6-0.2c0.1,0,0.3-0.1,0.4-0.1c0.8-0.3,1.6-0.5,2.4-0.8c0.1,0,0.2-0.1,0.3-0.1
						c1.8-0.6,3.6-1.3,5.4-2c0.1,0,0.2-0.1,0.3-0.1c0.9-0.3,1.7-0.7,2.6-1.1c0,0,0,0,0,0c0.9-0.4,1.8-0.8,2.7-1.2c0,0,0,0,0,0
						c0.9-0.4,1.7-0.8,2.6-1.2c0.1,0,0.2-0.1,0.2-0.1c1.7-0.8,3.4-1.7,5.1-2.6c0,0,0.1,0,0.1,0c0.6-0.3,1.3-0.7,1.9-1
						c0.1-0.1,0.2-0.1,0.3-0.2c0.1,0,0.1-0.1,0.2-0.1c0,0,0,0,0.1,0c0.4-0.2,0.8-0.5,1.3-0.7c0,0,0,0,0,0c0.9-0.5,1.8-1,2.6-1.6
						c4.4-7.1,6.9-15.5,6.9-24.5C1534.1,1416.1,1514.4,1395.6,1489.7,1394.2z"/>
					<circle fill="#A1CCE4" cx="1415.2" cy="1481.6" r="14.7"/>
				</g>
				<g>
					<path fill="#DDE0E7" d="M737.2,1366.5c1.5,2.1,3.5,4.1,5.8,6.1c0,0,0,0-0.1,0c19.3,16.6,65.2,30.3,95.6,38c0,0,0,0,0,0
						c12,3,21.6,5.1,26.1,6.1c1.7,0.4,3.1,1.6,3.6,3.3l24.9,75.4c1.2,3.6-1.7,7.1-5.5,6.7c-19.8-2.4-72.2-9.7-111-23
						c-0.2-0.1-0.4-0.1-0.6-0.2c-0.1,0-0.3-0.1-0.4-0.1c-0.8-0.3-1.6-0.5-2.4-0.8c-0.1,0-0.2-0.1-0.3-0.1c-1.8-0.6-3.6-1.3-5.4-2
						c-0.1,0-0.2-0.1-0.3-0.1c-0.9-0.3-1.7-0.7-2.6-1.1c0,0,0,0,0,0c-0.9-0.4-1.8-0.8-2.7-1.2c0,0,0,0,0,0c-0.9-0.4-1.7-0.8-2.6-1.2
						c-0.1,0-0.2-0.1-0.2-0.1c-1.7-0.8-3.4-1.7-5.1-2.6c0,0-0.1,0-0.1,0c-0.6-0.3-1.3-0.7-1.9-1c-0.1-0.1-0.2-0.1-0.3-0.2
						c-0.1,0-0.1-0.1-0.2-0.1c0,0,0,0-0.1,0c-0.4-0.2-0.8-0.5-1.3-0.7c0,0,0,0,0,0c-1.2-0.7-2.4-1.4-3.6-2.2c0,0-0.1,0-0.1-0.1
						c-2.3-1.5-4.6-3-6.7-4.7c0,0,0,0-0.1,0c-11.1-8.5-18.8-18.9-20.2-30.9C715.3,1393.9,737.2,1366.5,737.2,1366.5z"/>
					<path fill="#A1CCE4" d="M784.9,1394.2c10.6,3.9,21.7,7.4,32.2,10.5c10.6,8.6,17.3,21.7,17.3,36.4c0,21.2-14.1,39.1-33.4,45
						c-8.5-2.2-16.8-4.6-24.5-7.3c-0.2-0.1-0.4-0.1-0.6-0.2c-0.1,0-0.3-0.1-0.4-0.1c-0.8-0.3-1.6-0.5-2.4-0.8
						c-0.1,0-0.2-0.1-0.3-0.1c-1.8-0.6-3.6-1.3-5.4-2c-0.1,0-0.2-0.1-0.3-0.1c-0.9-0.3-1.7-0.7-2.6-1.1c0,0,0,0,0,0
						c-0.9-0.4-1.8-0.8-2.7-1.2c0,0,0,0,0,0c-0.9-0.4-1.7-0.8-2.6-1.2c-0.1,0-0.2-0.1-0.2-0.1c-1.7-0.8-3.4-1.7-5.1-2.6
						c0,0-0.1,0-0.1,0c-0.6-0.3-1.3-0.7-1.9-1c-0.1-0.1-0.2-0.1-0.3-0.2c-0.1,0-0.1-0.1-0.2-0.1c0,0,0,0-0.1,0
						c-0.4-0.2-0.8-0.5-1.3-0.7c0,0,0,0,0,0c-0.9-0.5-1.8-1-2.6-1.6c-4.4-7.1-6.9-15.5-6.9-24.5
						C740.5,1416.1,760.1,1395.6,784.9,1394.2z"/>
					<circle fill="#A1CCE4" cx="859.4" cy="1481.6" r="14.7"/>
				</g>
			</g>
			<g>
				<path fill="#ACAAAA" d="M941.5,1434.9c17.5,0,140.8-3,177-3.9v0c0-5.3-4.3-9.5-9.6-9.4c-44.6,1.1-151.2,3.6-167.4,3.6
					c-18.8,0-29.5,4.6-24.9,17C919.6,1437.1,928.7,1434.9,941.5,1434.9z"/>
				<path fill="#ACAAAA" d="M1138.3,1431.1c36.1,0.9,159.5,3.9,177,3.9c12.8,0,21.9,2.1,24.9,7.4c4.6-12.3-6.1-17-24.9-17
					c-16.2,0-122.8-2.5-167.4-3.6C1142.6,1421.6,1138.3,1425.8,1138.3,1431.1L1138.3,1431.1z"/>
			</g>
			<path fill="#EC9322" d="M1211.7,1528.7h-166.6c-2,0-3.7,1.7-3.7,3.7v39c0,2,1.7,3.7,3.7,3.7h166.6c2,0,3.7-1.7,3.7-3.7v-39
				C1215.4,1530.4,1213.7,1528.7,1211.7,1528.7z"/>
			<path fill="#748179" d="M1209.9,1532.7h-163c-0.6,0-1,0.4-1,1v36.4c0,0.6,0.4,1,1,1h163c0.6,0,1-0.4,1-1v-36.4
				C1210.9,1533.2,1210.4,1532.7,1209.9,1532.7z"/>
			<g>
				<path fill="#DCDDDE" d="M1084.4,1562.1h-3.9v-14.9c-1.4,1.3-3.1,2.3-5.1,3v-3.6c1-0.3,2.1-1,3.4-1.9c1.2-0.9,2-2,2.5-3.3h3.2
					V1562.1z"/>
				<path fill="#DCDDDE" d="M1118.6,1558.4v3.7h-13.8c0.1-1.4,0.6-2.7,1.3-3.9c0.7-1.2,2.2-2.9,4.4-4.9c1.8-1.7,2.9-2.8,3.3-3.4
					c0.5-0.8,0.8-1.6,0.8-2.4c0-0.9-0.2-1.6-0.7-2c-0.5-0.5-1.1-0.7-2-0.7c-0.8,0-1.5,0.2-2,0.7c-0.5,0.5-0.8,1.3-0.8,2.5l-3.9-0.4
					c0.2-2.2,1-3.7,2.2-4.7s2.8-1.4,4.6-1.4c2,0,3.6,0.5,4.8,1.6s1.7,2.5,1.7,4.1c0,0.9-0.2,1.8-0.5,2.6c-0.3,0.8-0.9,1.7-1.6,2.6
					c-0.5,0.6-1.3,1.5-2.6,2.6c-1.2,1.1-2,1.9-2.4,2.3c-0.3,0.4-0.6,0.7-0.8,1.1H1118.6z"/>
				<path fill="#DCDDDE" d="M1136.1,1556.6l3.8-0.5c0.1,1,0.4,1.7,1,2.2c0.5,0.5,1.2,0.8,1.9,0.8c0.8,0,1.5-0.3,2.1-0.9
					c0.6-0.6,0.8-1.5,0.8-2.5c0-1-0.3-1.8-0.8-2.4c-0.5-0.6-1.2-0.9-2-0.9c-0.5,0-1.1,0.1-1.8,0.3l0.4-3.2c1.1,0,1.9-0.2,2.4-0.7
					c0.6-0.5,0.8-1.1,0.8-2c0-0.7-0.2-1.2-0.6-1.7s-1-0.6-1.6-0.6c-0.7,0-1.3,0.2-1.7,0.7c-0.5,0.5-0.8,1.2-0.9,2.1l-3.6-0.6
					c0.3-1.2,0.6-2.2,1.1-3c0.5-0.7,1.2-1.3,2.1-1.8c0.9-0.4,1.9-0.6,3.1-0.6c1.9,0,3.5,0.6,4.7,1.9c1,1,1.4,2.2,1.4,3.4
					c0,1.8-1,3.3-3,4.3c1.2,0.3,2.1,0.8,2.8,1.7c0.7,0.9,1.1,1.9,1.1,3.2c0,1.8-0.7,3.3-2,4.6c-1.3,1.3-3,1.9-4.9,1.9
					c-1.9,0-3.4-0.5-4.6-1.6C1137,1559.8,1136.3,1558.4,1136.1,1556.6z"/>
				<path fill="#DCDDDE" d="M1175,1562.1v-4.1h-8.4v-3.5l8.9-13.1h3.3v13.1h2.6v3.5h-2.6v4.1H1175z M1175,1554.5v-7l-4.7,7H1175z"/>
			</g>
			<path fill="#FAAF19" d="M1483.7,1279.7c-86.1-48.9-280.8-54.2-337.5-54.7h-24.6c-56.7,0.5-251.4,5.9-337.5,54.7
				c0,0-1.3,0.4-3.4,1.1v18.1c0,34.9,65.7,78,139.7,78c73.9,0,201.3,0,201.3,0h24.6c0,0,127.3,0,201.3,0c73.9,0,139.7-43.1,139.7-78
				v-18.1C1484.9,1280.1,1483.7,1279.7,1483.7,1279.7z"/>
			<g>
				<g>
					<path fill="#E76825" d="M1268,1033.7c-1.2-3.1-2.4-6.3-3.6-9.4c-1.2-3-3.8-5.3-7-6.1c-39.5-10.5-79.9-15.7-120.4-15.5
						c-40.4,0.2-80.8,5.7-120.1,16.6c-3.2,0.9-5.8,3.2-6.9,6.2c-1.2,3.1-2.4,6.3-3.5,9.4c-0.6,1.6,0.9,3.1,2.5,2.6
						c41.7-12.8,84.8-19.3,128-19.5c43.2-0.2,86.4,5.9,128.3,18.4C1267.1,1036.7,1268.6,1035.2,1268,1033.7z"/>
				</g>
				<g>
					<path fill="#F39422" d="M1248.5,1015.4c-1.8-19.4-4.4-38.8-7.8-58.3c-1.3-7.4-8.2-13.6-17-15.1c-28.8-4.7-58-7-87.1-6.9
						s-58.2,2.7-86.9,7.7c-8.8,1.5-15.6,7.8-16.8,15.2c-3.1,19.5-5.5,38.9-7.1,58.3c-0.3,4.2,3.7,7.4,7.9,6.3
						c34-8.2,68.7-12.4,103.4-12.5c34.7-0.2,69.5,3.7,103.6,11.6C1244.9,1022.8,1248.9,1019.6,1248.5,1015.4z"/>
				</g>
				<g>
					<path fill="#FFDE00" d="M1032.4,1017.6c-0.3,0.1-0.6,0-0.8-0.2c-0.2-0.2-0.3-0.4-0.3-0.7c1.8-19.4,4.4-38.8,7.7-58.2
						c0.9-5.1,5.5-9.4,11.6-10.4c56.9-9.8,115.2-10.1,172.3-0.8c6.1,1,10.8,5.2,11.7,10.3c3.6,19.4,6.4,38.8,8.4,58.2
						c0,0.3-0.1,0.5-0.3,0.7c-0.2,0.2-0.5,0.2-0.8,0.2C1172.9,1000.7,1101.2,1001.1,1032.4,1017.6z"/>
				</g>
				<g>
					<path fill="#DCDDDE" d="M1071.3,997.9c-1.5-10.2-3-20.3-4.5-30.5c-4.1,0.6-8.3,1.3-12.4,2c-0.4-2.1-0.7-4.1-1.1-6.2
						c11.2-1.9,22.5-3.5,33.8-4.7c0.2,2.1,0.4,4.2,0.7,6.2c-4.2,0.4-8.3,0.9-12.5,1.4c1.3,10.2,2.7,20.4,4,30.6
						C1076.6,997.1,1074,997.5,1071.3,997.9z"/>
					<path fill="#DCDDDE" d="M1136.6,992.9c-2.9,0-5.8,0.1-8.7,0.1c-1.2-2.8-2.5-5.6-3.7-8.3c-5.4,0.2-10.8,0.4-16.1,0.8
						c-0.9,2.9-1.8,5.8-2.7,8.6c-2.8,0.2-5.7,0.4-8.5,0.7c4-12.8,8.4-25.5,13.3-38.2c3-0.2,6.1-0.3,9.1-0.4
						C1125.5,968.3,1131.3,980.6,1136.6,992.9z M1121.3,978.6c-2.1-4.5-4.2-9-6.3-13.5c-1.7,4.7-3.3,9.4-4.8,14.1
						C1113.9,978.9,1117.6,978.7,1121.3,978.6z"/>
					<path fill="#DCDDDE" d="M1145.7,993c4.6-6.4,9.4-12.7,14.4-19c-4-6.1-8.2-12.1-12.5-18.1c3.4,0.1,6.7,0.1,10.1,0.3
						c2.7,4.1,5.4,8.2,8,12.3c2.9-3.8,6-7.6,9-11.4c3.3,0.2,6.7,0.5,10,0.8c-5,5.6-9.8,11.2-14.4,17c4.3,6.7,8.4,13.4,12.3,20.1
						c-3.2-0.3-6.4-0.6-9.6-0.8c-2.6-4.5-5.3-8.9-8.1-13.4c-3.2,4.1-6.4,8.3-9.5,12.4C1152.1,993.1,1148.9,993,1145.7,993z"/>
					<path fill="#DCDDDE" d="M1195.3,996.3c1.5-12.3,3-24.6,4.4-36.9c2.9,0.3,5.7,0.7,8.6,1.1c-1.7,12.3-3.4,24.5-5.1,36.8
						C1200.6,997,1198,996.6,1195.3,996.3z"/>
				</g>
			</g>
		</g>
		<g>
			<path fill="#FFFEFE" d="M491.1,889.4c-0.2-11.9-17.9-21.8-39.8-21.2c-4.8,0.1-9.5,0.8-13.7,1.8c-9.5-9.4-29.6-15-52.2-12.5
				c-28.3,3.1-49.8,17.7-51.6,32.2c-4.3-0.4-9-0.2-13.9,0.8c-14.7,2.9-25.5,11.5-27,20.1C357.8,895.3,424.4,888.2,491.1,889.4z"/>
			<path fill="#FFFEFE" d="M754.2,568c-10.5-17.8-34.9-30.6-63.4-30.5c-13.1,0.1-25.3,2.8-35.6,7.5c-15.1-28.8-59.3-48.7-110.4-44.7
				c-37.5,2.9-69.5,17.9-87.8,37.9c-13.6-4.7-29.5-6.3-46-3.9c-27.2,4-49.6,18.1-61.5,36.1c-5.2,0.1-10.5,0.6-15.8,1.6
				c-28,5.3-49.5,22.5-56.4,42.1C433.6,578.8,593.9,563.3,754.2,568z"/>
			<path fill="#FFFEFE" d="M992.7,542.4c-1.6,0-3.2,0-4.8,0.1c-9.7-13.5-35.4-23.1-65.1-20.6c-39.2,3.1-67.3,25.2-63.4,44.8
				c56.3-10.1,113.7-13.2,170.7-9C1024.7,549.4,1010.1,542.7,992.7,542.4z"/>
			<g>
				<path fill="#FFFEFE" d="M1991,762.3c-1-0.3-2.1-0.6-3.1-0.9c-3.6-10.6-18.3-21.6-37.9-25.8c-25.8-5.6-48.1,3.2-49.4,16.6
					c38.1,4.3,75.5,13.5,111.4,27.1C2010.2,772.9,2002.1,765.9,1991,762.3z"/>
				<path fill="#FFFEFE" d="M1455,661.9c0.9,0,1.8,0,2.7,0.1c5.5-7.3,19.7-12.3,36-10.7c21.5,2.1,36.8,14.6,34.4,25.3
					c-30.9-6.2-62.4-8.4-93.8-6.7C1437.3,665.4,1445.4,661.9,1455,661.9z"/>
				<path fill="#FFFEFE" d="M1814.1,714.3c2.4-11.6-12.6-25.2-34.2-29.4c-4.7-0.9-9.4-1.3-13.8-1.2c-7.2-11.3-25.6-21.2-48.1-23.7
					c-28.3-3.2-52.4,6.3-57.5,20c-4.1-1.4-8.8-2.2-13.7-2.3c-14.9-0.4-27.5,5.6-30.8,13.7C1682.8,690.6,1749.3,698.4,1814.1,714.3z"
					/>
			</g>
			<circle fill="#FFFEFE" cx="1940.7" cy="582" r="18"/>
			<g>
				<circle fill="#FFFEFE" cx="560.2" cy="704.8" r="18"/>
				<circle fill="#FFFEFE" cx="608.8" cy="660.6" r="9.6"/>
			</g>
			<circle fill="#FFFEFE" cx="1852.2" cy="556.1" r="9.6"/>
		</g>
		<g>
			<g>
				<path fill="#FFFFFF" d="M798,267.7v-62.5h-19.1v-8.4h46.1v8.4h-19.2v62.5H798z"/>
				<path fill="#FFFFFF" d="M834.3,267.7l22.4-70.9h8.2l23.8,70.9h-8.8l-6.8-21.5h-24.4l-6.3,21.5H834.3z M850.9,238.6h19.8l-6-19.6
					c-1.9-6-3.2-10.9-4.1-14.7c-0.8,4.5-1.8,9.1-3.2,13.5L850.9,238.6z"/>
				<path fill="#FFFFFF" d="M902.7,267.7l22.5-36.9l-19.9-33.9h9.1l10.6,18.2c2.2,3.7,3.7,6.6,4.6,8.7c1.2-2.5,2.8-5.2,4.6-8.1
					l11.8-18.8h8.3l-20.4,33.3l22,37.5h-9.5l-14.7-25.3c-0.8-1.4-1.6-3-2.5-4.8c-1.3,2.6-2.3,4.4-2.8,5.3L912,267.7H902.7z"/>
				<path fill="#FFFFFF" d="M978.1,267.7v-70.9h7.7v70.9H978.1z"/>
				<path fill="#FFFFFF" d="M1046.9,244.9l7.3-0.8c0.4,3.9,1.3,6.9,2.6,9.1c1.4,2.2,3.3,3.9,5.9,5.2c2.5,1.3,5.4,2,8.6,2
					c4.6,0,8.1-1.1,10.7-3.4c2.5-2.2,3.8-5.1,3.8-8.7c0-2.1-0.5-3.9-1.4-5.5c-0.9-1.6-2.3-2.8-4.2-3.8c-1.9-1-5.9-2.4-12-4.2
					c-5.5-1.6-9.4-3.3-11.7-4.9s-4.1-3.7-5.4-6.3c-1.3-2.5-1.9-5.4-1.9-8.6c0-5.7,1.9-10.4,5.6-14.1c3.7-3.6,8.7-5.5,15-5.5
					c4.3,0,8.1,0.9,11.3,2.6c3.2,1.7,5.8,4.2,7.5,7.3c1.8,3.2,2.7,6.9,2.9,11.3l-7.4,0.7c-0.4-4.6-1.8-8-4.1-10.2
					c-2.4-2.2-5.7-3.3-10-3.3c-4.4,0-7.7,1-10,2.9c-2.3,1.9-3.4,4.5-3.4,7.6c0,2.9,0.8,5.1,2.5,6.7c1.7,1.6,5.4,3.2,11.3,4.8
					c5.7,1.6,9.8,3,12.1,4.1c3.5,1.8,6.2,4.2,8,7.1c1.8,2.9,2.7,6.5,2.7,10.6c0,4.1-1,7.8-2.9,11.1c-1.9,3.3-4.5,5.9-7.8,7.6
					c-3.3,1.7-7.2,2.6-11.8,2.6c-7.2,0-12.9-2.2-17.2-6.5C1049.3,258.1,1047.1,252.3,1046.9,244.9z"/>
				<path fill="#FFFFFF" d="M1117.7,267.7v-70.9h42v8.4h-34.3v21.7h32.1v8.4h-32.1v24.1h35.7v8.4H1117.7z"/>
				<path fill="#FFFFFF" d="M1185.5,267.7v-70.9h25.8c5.4,0,9.4,0.7,11.9,2c2.6,1.3,4.7,3.5,6.3,6.6c1.6,3.1,2.5,6.6,2.5,10.7
					c0,5.3-1.4,9.7-4.2,13c-2.8,3.3-6.8,5.4-12.2,6.3c2.2,1.3,3.8,2.6,4.9,3.9c2.3,2.7,4.3,5.7,6,9l10.2,19.3h-9.7l-7.8-14.7
					c-3-5.8-5.3-9.6-6.8-11.6c-1.5-2-3-3.3-4.4-4c-1.4-0.7-3.4-1-6-1h-8.9v31.5H1185.5z M1193.1,228.1h16.5c3.6,0,6.3-0.4,8.2-1.3
					c1.9-0.9,3.4-2.2,4.4-4.1c1.1-1.9,1.6-4,1.6-6.5c0-3.6-1-6.4-3.1-8.4c-2.1-2-5.2-3.1-9.3-3.1h-18.4V228.1z"/>
				<path fill="#FFFFFF" d="M1273.2,267.7l-22.6-70.9h8.3l15.2,51.5c1.2,4,2.2,7.9,3,11.6c0.9-3.9,1.9-7.8,3.1-11.6l15.7-51.5h7.8
					l-22.7,70.9H1273.2z"/>
				<path fill="#FFFFFF" d="M1326,267.7v-70.9h7.7v70.9H1326z"/>
				<path fill="#FFFFFF" d="M1402.2,242.9l7.7,2.4c-1.7,8-4.7,13.9-9,17.8c-4.3,3.9-9.5,5.9-15.6,5.9c-5.4,0-10-1.3-13.8-3.9
					c-3.8-2.6-6.9-6.8-9.4-12.6c-2.4-5.8-3.6-12.7-3.6-20.6c0-7.8,1.2-14.4,3.7-19.8c2.4-5.4,5.7-9.5,9.9-12.2s8.8-4.1,13.9-4.1
					c5.6,0,10.4,1.7,14.5,5.2c4,3.5,6.9,8.6,8.5,15.4l-7.5,2.2c-2.6-9.8-7.8-14.7-15.5-14.7c-3.9,0-7.2,1-10.1,3s-5.1,5.1-6.8,9.3
					c-1.7,4.2-2.5,9.5-2.5,15.9c0,9.7,1.7,17,5.1,21.8c3.4,4.9,8,7.3,13.6,7.3c4.2,0,7.8-1.5,10.9-4.5
					C1399.2,253.4,1401.2,248.9,1402.2,242.9z"/>
				<path fill="#FFFFFF" d="M1433.6,267.7v-70.9h42v8.4h-34.3v21.7h32.1v8.4h-32.1v24.1h35.7v8.4H1433.6z"/>
			</g>
			<g>
				<path fill="#FFFFFF" d="M537.7,340.5V314h2.9v23.4h10.7v3.1H537.7z"/>
				<path fill="#FFFFFF" d="M553.4,330.9c0-3.3,0.7-5.8,2.1-7.5c1.4-1.7,3.2-2.5,5.3-2.5c2.1,0,3.8,0.8,5.3,2.5s2.1,4.1,2.1,7.3
					c0,3.4-0.7,6-2.1,7.7c-1.4,1.7-3.1,2.5-5.3,2.5c-2.1,0-3.9-0.8-5.3-2.5C554.1,336.7,553.4,334.2,553.4,330.9z M556.1,330.9
					c0,2.5,0.5,4.3,1.4,5.5c0.9,1.2,2,1.8,3.4,1.8c1.3,0,2.3-0.6,3.2-1.8c0.9-1.2,1.3-3.1,1.3-5.5c0-2.5-0.5-4.3-1.4-5.5
					s-2-1.8-3.4-1.8c-1.3,0-2.3,0.6-3.2,1.8C556.5,326.6,556.1,328.5,556.1,330.9z"/>
				<path fill="#FFFFFF" d="M571.3,340.5v-19.2h2.4v2.9c0.6-1.3,1.2-2.2,1.7-2.7c0.5-0.4,1.1-0.7,1.7-0.7c0.9,0,1.8,0.3,2.7,1
					l-0.9,3c-0.7-0.5-1.3-0.7-1.9-0.7c-0.6,0-1.1,0.2-1.6,0.6c-0.5,0.4-0.8,1-1,1.7c-0.3,1.2-0.5,2.6-0.5,4v10H571.3z"/>
				<path fill="#FFFFFF" d="M592.1,334.4l2.7,0.4c-0.5,2-1.3,3.6-2.5,4.6c-1.2,1-2.7,1.6-4.5,1.6c-2.2,0-4-0.8-5.4-2.5
					c-1.4-1.7-2.1-4.1-2.1-7.3c0-3.3,0.7-5.8,2.1-7.6c1.4-1.7,3.2-2.6,5.3-2.6c2,0,3.7,0.9,5.1,2.6c1.4,1.7,2,4.2,2,7.4l0,0.9h-11.7
					c0.1,2.2,0.6,3.8,1.5,4.9c0.9,1.1,2,1.6,3.3,1.6C589.9,338.3,591.3,337,592.1,334.4z M583.3,329.1h8.8c-0.1-1.7-0.5-2.9-1.1-3.7
					c-0.9-1.2-1.9-1.8-3.3-1.8c-1.2,0-2.2,0.5-3.1,1.5C583.9,326.1,583.4,327.4,583.3,329.1z"/>
				<path fill="#FFFFFF" d="M598.3,340.5v-19.2h2.4v2.7c0.5-1,1.2-1.8,2-2.3c0.8-0.5,1.7-0.8,2.7-0.8c1.1,0,2,0.3,2.8,0.9
					c0.8,0.6,1.3,1.4,1.6,2.5c0.6-1.1,1.4-1.9,2.2-2.5c0.8-0.6,1.7-0.8,2.7-0.8c1.5,0,2.7,0.5,3.6,1.5c0.9,1,1.3,2.7,1.3,4.9v13.2
					h-2.7v-12.1c0-1.4-0.1-2.3-0.3-2.9c-0.2-0.6-0.5-1-1-1.3s-1-0.5-1.5-0.5c-1.2,0-2.1,0.5-2.8,1.4s-1.1,2.3-1.1,4.3v11.2h-2.7
					v-12.5c0-1.6-0.2-2.7-0.7-3.4c-0.5-0.7-1.2-1-2-1c-1.2,0-2.2,0.5-2.9,1.5c-0.7,1-1.1,2.8-1.1,5.4v10H598.3z"/>
				<path fill="#FFFFFF" d="M631.9,317.8V314h2.7v3.7H631.9z M631.9,340.5v-19.2h2.7v19.2H631.9z"/>
				<path fill="#FFFFFF" d="M638.7,347.9v-26.5h2.5v2.5c0.6-1,1.3-1.8,2-2.2s1.6-0.7,2.5-0.7c1.2,0,2.4,0.4,3.4,1.1
					c1,0.7,1.8,1.9,2.4,3.4c0.6,1.5,0.9,3.3,0.9,5.4c0,3.3-0.7,5.8-2.1,7.5c-1.4,1.8-3,2.6-4.8,2.6c-0.8,0-1.6-0.2-2.3-0.6
					c-0.7-0.4-1.3-1-1.8-1.8v9.3H638.7z M641.1,331.1c0,2.5,0.4,4.3,1.2,5.5c0.8,1.2,1.8,1.8,3,1.8c1.1,0,2.1-0.6,3-1.8
					c0.9-1.2,1.3-3.1,1.3-5.6c0-2.5-0.4-4.4-1.2-5.6c-0.8-1.2-1.8-1.8-3-1.8c-1.1,0-2,0.6-2.9,1.9
					C641.5,326.7,641.1,328.6,641.1,331.1z"/>
				<path fill="#FFFFFF" d="M654.5,334.8l2.7-0.5c0.2,1.4,0.6,2.4,1.3,3c0.7,0.7,1.6,1,2.8,1c1.2,0,2-0.3,2.7-0.9
					c0.6-0.6,0.9-1.3,0.9-2.2c0-0.8-0.3-1.3-0.8-1.8c-0.4-0.3-1.3-0.7-2.7-1.1c-2.1-0.6-3.5-1.2-4.2-1.6c-0.7-0.4-1.2-1-1.6-1.8
					c-0.4-0.7-0.6-1.6-0.6-2.5c0-1.6,0.5-3,1.6-4c1-1,2.5-1.5,4.4-1.5c1.2,0,2.2,0.2,3.1,0.6c0.9,0.4,1.6,1,2,1.7
					c0.5,0.7,0.8,1.7,1,3.1l-2.6,0.4c-0.2-2.1-1.4-3.1-3.4-3.1c-1.2,0-2,0.2-2.6,0.7c-0.6,0.5-0.8,1.1-0.8,1.8
					c0,0.7,0.3,1.3,0.8,1.7c0.3,0.2,1.3,0.6,2.9,1.2c2.2,0.7,3.6,1.3,4.3,1.7c0.6,0.4,1.2,1,1.5,1.7c0.4,0.7,0.5,1.6,0.5,2.6
					c0,1.8-0.6,3.3-1.7,4.5c-1.2,1.1-2.7,1.7-4.8,1.7C657.3,341,655.1,338.9,654.5,334.8z"/>
				<path fill="#FFFFFF" d="M681,340.5v-2.8c-0.6,1.1-1.3,1.9-2.2,2.4c-0.8,0.5-1.8,0.8-2.8,0.8c-1.2,0-2.3-0.3-3.2-1
					c-0.9-0.7-1.5-1.5-1.8-2.5c-0.3-1-0.4-2.4-0.4-4.2v-11.9h2.7V332c0,2,0.1,3.3,0.3,4c0.2,0.7,0.6,1.2,1.1,1.6
					c0.5,0.4,1.1,0.6,1.8,0.6c1.3,0,2.3-0.5,3.1-1.6c0.7-0.9,1-2.6,1-5v-10.3h2.7v19.2H681z"/>
				<path fill="#FFFFFF" d="M687.6,340.5v-19.2h2.4v2.7c0.5-1,1.2-1.8,2-2.3c0.8-0.5,1.7-0.8,2.7-0.8c1.1,0,2,0.3,2.8,0.9
					c0.8,0.6,1.3,1.4,1.6,2.5c0.6-1.1,1.4-1.9,2.2-2.5c0.8-0.6,1.7-0.8,2.7-0.8c1.5,0,2.7,0.5,3.6,1.5c0.9,1,1.3,2.7,1.3,4.9v13.2
					h-2.7v-12.1c0-1.4-0.1-2.3-0.3-2.9c-0.2-0.6-0.5-1-1-1.3s-1-0.5-1.5-0.5c-1.2,0-2.1,0.5-2.8,1.4s-1.1,2.3-1.1,4.3v11.2H697
					v-12.5c0-1.6-0.2-2.7-0.7-3.4c-0.5-0.7-1.2-1-2-1c-1.2,0-2.2,0.5-2.9,1.5c-0.7,1-1.1,2.8-1.1,5.4v10H687.6z"/>
				<path fill="#FFFFFF" d="M731.5,340.5v-2.4c-0.5,0.9-1.1,1.6-1.9,2.1c-0.8,0.5-1.6,0.7-2.5,0.7c-1.9,0-3.5-0.9-4.8-2.6
					c-1.4-1.8-2-4.2-2-7.4c0-2.2,0.3-4,0.9-5.5c0.6-1.5,1.4-2.6,2.4-3.4c1-0.7,2.1-1.1,3.3-1.1c0.9,0,1.7,0.2,2.4,0.7
					c0.8,0.5,1.4,1.1,1.9,1.9V314h2.7v26.5H731.5z M723.1,331c0,2.5,0.4,4.3,1.3,5.5s1.9,1.8,3,1.8c1.1,0,2.1-0.6,2.9-1.7
					s1.2-2.9,1.2-5.2c0-2.7-0.4-4.6-1.2-5.9c-0.8-1.2-1.9-1.9-3.1-1.9c-1.1,0-2.1,0.6-2.9,1.8C723.5,326.6,723.1,328.4,723.1,331z"
					/>
				<path fill="#FFFFFF" d="M737.2,330.9c0-3.3,0.7-5.8,2.1-7.5c1.4-1.7,3.2-2.5,5.3-2.5c2.1,0,3.8,0.8,5.3,2.5s2.1,4.1,2.1,7.3
					c0,3.4-0.7,6-2.1,7.7c-1.4,1.7-3.1,2.5-5.3,2.5c-2.1,0-3.9-0.8-5.3-2.5C737.9,336.7,737.2,334.2,737.2,330.9z M739.9,330.9
					c0,2.5,0.5,4.3,1.4,5.5c0.9,1.2,2,1.8,3.4,1.8c1.3,0,2.3-0.6,3.2-1.8c0.9-1.2,1.3-3.1,1.3-5.5c0-2.5-0.5-4.3-1.4-5.5
					s-2-1.8-3.4-1.8c-1.3,0-2.3,0.6-3.2,1.8C740.4,326.6,739.9,328.5,739.9,330.9z"/>
				<path fill="#FFFFFF" d="M755,340.5V314h2.7v26.5H755z"/>
				<path fill="#FFFFFF" d="M760.8,330.9c0-3.3,0.7-5.8,2.1-7.5c1.4-1.7,3.2-2.5,5.3-2.5c2.1,0,3.8,0.8,5.3,2.5s2.1,4.1,2.1,7.3
					c0,3.4-0.7,6-2.1,7.7c-1.4,1.7-3.1,2.5-5.3,2.5c-2.1,0-3.9-0.8-5.3-2.5C761.5,336.7,760.8,334.2,760.8,330.9z M763.5,330.9
					c0,2.5,0.5,4.3,1.4,5.5c0.9,1.2,2,1.8,3.4,1.8c1.3,0,2.3-0.6,3.2-1.8c0.9-1.2,1.3-3.1,1.3-5.5c0-2.5-0.5-4.3-1.4-5.5
					s-2-1.8-3.4-1.8c-1.3,0-2.3,0.6-3.2,1.8C764,326.6,763.5,328.5,763.5,330.9z"/>
				<path fill="#FFFFFF" d="M778.7,340.5v-19.2h2.4v2.9c0.6-1.3,1.2-2.2,1.7-2.7c0.5-0.4,1.1-0.7,1.7-0.7c0.9,0,1.8,0.3,2.7,1
					l-0.9,3c-0.7-0.5-1.3-0.7-1.9-0.7c-0.6,0-1.1,0.2-1.6,0.6c-0.5,0.4-0.8,1-1,1.7c-0.3,1.2-0.5,2.6-0.5,4v10H778.7z"/>
				<path fill="#FFFFFF" d="M796.2,334.8l2.7-0.5c0.2,1.4,0.6,2.4,1.3,3c0.7,0.7,1.6,1,2.8,1c1.2,0,2-0.3,2.7-0.9
					c0.6-0.6,0.9-1.3,0.9-2.2c0-0.8-0.3-1.3-0.8-1.8c-0.4-0.3-1.3-0.7-2.7-1.1c-2.1-0.6-3.5-1.2-4.2-1.6c-0.7-0.4-1.2-1-1.6-1.8
					c-0.4-0.7-0.6-1.6-0.6-2.5c0-1.6,0.5-3,1.6-4c1-1,2.5-1.5,4.4-1.5c1.2,0,2.2,0.2,3.1,0.6c0.9,0.4,1.6,1,2,1.7
					c0.5,0.7,0.8,1.7,1,3.1l-2.6,0.4c-0.2-2.1-1.4-3.1-3.4-3.1c-1.2,0-2,0.2-2.6,0.7c-0.6,0.5-0.8,1.1-0.8,1.8
					c0,0.7,0.3,1.3,0.8,1.7c0.3,0.2,1.3,0.6,2.9,1.2c2.2,0.7,3.6,1.3,4.3,1.7c0.6,0.4,1.2,1,1.5,1.7c0.4,0.7,0.5,1.6,0.5,2.6
					c0,1.8-0.6,3.3-1.7,4.5c-1.2,1.1-2.7,1.7-4.8,1.7C799,341,796.8,338.9,796.2,334.8z"/>
				<path fill="#FFFFFF" d="M812.4,317.8V314h2.7v3.7H812.4z M812.4,340.5v-19.2h2.7v19.2H812.4z"/>
				<path fill="#FFFFFF" d="M825.1,337.6l0.4,2.9c-0.7,0.2-1.4,0.3-2,0.3c-0.9,0-1.7-0.2-2.2-0.6c-0.6-0.4-1-0.9-1.2-1.5
					c-0.2-0.6-0.3-1.9-0.3-3.8v-11h-2v-2.5h2v-4.8l2.7-2v6.7h2.7v2.5h-2.7v11.2c0,1,0.1,1.7,0.2,2c0.2,0.4,0.7,0.7,1.3,0.7
					C824.2,337.8,824.6,337.7,825.1,337.6z"/>
				<path fill="#FFFFFF" d="M846.3,338.2c-0.9,0.9-1.8,1.6-2.8,2.1c-1,0.5-2,0.7-3,0.7c-1.6,0-2.9-0.5-3.9-1.5s-1.5-2.3-1.5-4
					c0-1.1,0.2-2.1,0.7-2.9c0.5-0.9,1.1-1.5,1.9-2c0.8-0.5,2-0.8,3.6-1.1c2.2-0.3,3.8-0.7,4.8-1.1l0-0.8c0-1.3-0.2-2.2-0.7-2.8
					c-0.7-0.8-1.7-1.2-3.1-1.2c-1.2,0-2.2,0.3-2.8,0.8c-0.6,0.5-1.1,1.5-1.4,2.9l-2.6-0.4c0.4-2.1,1.1-3.6,2.3-4.5
					c1.1-0.9,2.8-1.4,4.9-1.4c1.6,0,2.9,0.3,3.9,0.9s1.5,1.4,1.8,2.3c0.2,0.9,0.4,2.3,0.4,4v4.3c0,3,0.1,4.9,0.2,5.7
					c0.1,0.8,0.3,1.6,0.7,2.3h-2.8C846.5,339.9,846.3,339.1,846.3,338.2z M846,330.9c-1,0.5-2.4,0.9-4.4,1.2
					c-1.1,0.2-1.9,0.4-2.3,0.7c-0.4,0.2-0.8,0.6-1,1c-0.2,0.5-0.4,1-0.4,1.6c0,0.9,0.3,1.6,0.8,2.2c0.6,0.5,1.3,0.8,2.3,0.8
					c1,0,1.8-0.2,2.6-0.7c0.8-0.5,1.4-1.2,1.7-2c0.4-0.8,0.6-2,0.6-3.6V330.9z"/>
				<path fill="#FFFFFF" d="M852.9,340.5v-19.2h2.4v2.7c0.5-1,1.2-1.8,2-2.3c0.8-0.5,1.7-0.8,2.7-0.8c1.1,0,2,0.3,2.8,0.9
					c0.8,0.6,1.3,1.4,1.6,2.5c0.6-1.1,1.4-1.9,2.2-2.5c0.8-0.6,1.7-0.8,2.7-0.8c1.5,0,2.7,0.5,3.6,1.5c0.9,1,1.3,2.7,1.3,4.9v13.2
					h-2.7v-12.1c0-1.4-0.1-2.3-0.3-2.9c-0.2-0.6-0.5-1-1-1.3s-1-0.5-1.5-0.5c-1.2,0-2.1,0.5-2.8,1.4s-1.1,2.3-1.1,4.3v11.2h-2.7
					v-12.5c0-1.6-0.2-2.7-0.7-3.4c-0.5-0.7-1.2-1-2-1c-1.2,0-2.2,0.5-2.9,1.5c-0.7,1-1.1,2.8-1.1,5.4v10H852.9z"/>
				<path fill="#FFFFFF" d="M888.9,334.4l2.7,0.4c-0.5,2-1.3,3.6-2.5,4.6c-1.2,1-2.7,1.6-4.5,1.6c-2.2,0-4-0.8-5.4-2.5
					c-1.4-1.7-2.1-4.1-2.1-7.3c0-3.3,0.7-5.8,2.1-7.6c1.4-1.7,3.2-2.6,5.3-2.6c2,0,3.7,0.9,5.1,2.6c1.4,1.7,2,4.2,2,7.4l0,0.9H880
					c0.1,2.2,0.6,3.8,1.5,4.9c0.9,1.1,2,1.6,3.3,1.6C886.7,338.3,888.1,337,888.9,334.4z M880.1,329.1h8.8c-0.1-1.7-0.5-2.9-1.1-3.7
					c-0.9-1.2-1.9-1.8-3.3-1.8c-1.2,0-2.2,0.5-3.1,1.5C880.7,326.1,880.2,327.4,880.1,329.1z"/>
				<path fill="#FFFFFF" d="M901,337.6l0.4,2.9c-0.7,0.2-1.4,0.3-2,0.3c-0.9,0-1.7-0.2-2.2-0.6c-0.6-0.4-1-0.9-1.2-1.5
					c-0.2-0.6-0.3-1.9-0.3-3.8v-11h-2v-2.5h2v-4.8l2.7-2v6.7h2.7v2.5h-2.7v11.2c0,1,0.1,1.7,0.2,2c0.2,0.4,0.7,0.7,1.3,0.7
					C900.1,337.8,900.5,337.7,901,337.6z"/>
				<path fill="#FFFFFF" d="M904.2,340.5v-3.7h3v3.7c0,1.4-0.2,2.6-0.6,3.4c-0.4,0.8-1,1.4-1.8,1.9l-0.7-1.4c0.5-0.3,1-0.7,1.2-1.3
					c0.3-0.6,0.4-1.4,0.5-2.6H904.2z"/>
				<path fill="#FFFFFF" d="M930.6,333.5l2.6,0.4c-0.3,2.3-1.1,4-2.3,5.2c-1.2,1.2-2.7,1.8-4.4,1.8c-2.1,0-3.8-0.8-5.1-2.5
					c-1.3-1.7-2-4.2-2-7.5c0-3.3,0.7-5.8,2-7.5c1.3-1.7,3.1-2.5,5.2-2.5c1.6,0,3,0.5,4.1,1.5c1.1,1,1.8,2.5,2.1,4.6l-2.6,0.5
					c-0.3-1.3-0.7-2.3-1.3-2.9c-0.6-0.6-1.4-1-2.3-1c-1.3,0-2.4,0.6-3.3,1.7c-0.9,1.2-1.3,3-1.3,5.5c0,2.6,0.4,4.5,1.2,5.7
					c0.8,1.2,1.9,1.8,3.2,1.8c1,0,1.9-0.4,2.6-1.2C930,336.4,930.4,335.1,930.6,333.5z"/>
				<path fill="#FFFFFF" d="M934.5,330.9c0-3.3,0.7-5.8,2.1-7.5c1.4-1.7,3.2-2.5,5.3-2.5c2.1,0,3.8,0.8,5.3,2.5s2.1,4.1,2.1,7.3
					c0,3.4-0.7,6-2.1,7.7c-1.4,1.7-3.1,2.5-5.3,2.5c-2.1,0-3.9-0.8-5.3-2.5C935.2,336.7,934.5,334.2,934.5,330.9z M937.2,330.9
					c0,2.5,0.5,4.3,1.4,5.5c0.9,1.2,2,1.8,3.4,1.8c1.3,0,2.3-0.6,3.2-1.8c0.9-1.2,1.3-3.1,1.3-5.5c0-2.5-0.5-4.3-1.4-5.5
					s-2-1.8-3.4-1.8c-1.3,0-2.3,0.6-3.2,1.8C937.7,326.6,937.2,328.5,937.2,330.9z"/>
				<path fill="#FFFFFF" d="M952.4,340.5v-19.2h2.4v2.7c0.6-1.1,1.3-1.8,2.1-2.4c0.8-0.5,1.8-0.8,2.9-0.8c0.8,0,1.6,0.2,2.3,0.5
					s1.3,0.8,1.7,1.3s0.8,1.2,1,2.1c0.2,0.9,0.3,2.2,0.3,3.9v11.8h-2.7v-11.7c0-1.4-0.1-2.4-0.4-3.1c-0.2-0.7-0.6-1.2-1.1-1.5
					c-0.5-0.4-1.1-0.5-1.8-0.5c-1.3,0-2.3,0.5-3.1,1.4c-0.8,1-1.1,2.6-1.1,4.9v10.5H952.4z"/>
				<path fill="#FFFFFF" d="M968.2,334.8l2.7-0.5c0.2,1.4,0.6,2.4,1.3,3c0.7,0.7,1.6,1,2.8,1c1.2,0,2-0.3,2.7-0.9
					c0.6-0.6,0.9-1.3,0.9-2.2c0-0.8-0.3-1.3-0.8-1.8c-0.4-0.3-1.3-0.7-2.7-1.1c-2.1-0.6-3.5-1.2-4.2-1.6c-0.7-0.4-1.2-1-1.6-1.8
					c-0.4-0.7-0.6-1.6-0.6-2.5c0-1.6,0.5-3,1.6-4c1-1,2.5-1.5,4.4-1.5c1.2,0,2.2,0.2,3.1,0.6c0.9,0.4,1.6,1,2,1.7
					c0.5,0.7,0.8,1.7,1,3.1l-2.6,0.4c-0.2-2.1-1.4-3.1-3.4-3.1c-1.2,0-2,0.2-2.6,0.7c-0.6,0.5-0.8,1.1-0.8,1.8
					c0,0.7,0.3,1.3,0.8,1.7c0.3,0.2,1.3,0.6,2.9,1.2c2.2,0.7,3.6,1.3,4.3,1.7c0.6,0.4,1.2,1,1.5,1.7c0.4,0.7,0.5,1.6,0.5,2.6
					c0,1.8-0.6,3.3-1.7,4.5c-1.2,1.1-2.7,1.7-4.8,1.7C971,341,968.8,338.9,968.2,334.8z"/>
				<path fill="#FFFFFF" d="M995.2,334.4l2.7,0.4c-0.5,2-1.3,3.6-2.5,4.6c-1.2,1-2.7,1.6-4.5,1.6c-2.2,0-4-0.8-5.4-2.5
					c-1.4-1.7-2.1-4.1-2.1-7.3c0-3.3,0.7-5.8,2.1-7.6c1.4-1.7,3.2-2.6,5.3-2.6c2,0,3.7,0.9,5.1,2.6c1.4,1.7,2,4.2,2,7.4l0,0.9h-11.7
					c0.1,2.2,0.6,3.8,1.5,4.9c0.9,1.1,2,1.6,3.3,1.6C993,338.3,994.4,337,995.2,334.4z M986.4,329.1h8.8c-0.1-1.7-0.5-2.9-1.1-3.7
					c-0.9-1.2-1.9-1.8-3.3-1.8c-1.2,0-2.2,0.5-3.1,1.5C987,326.1,986.5,327.4,986.4,329.1z"/>
				<path fill="#FFFFFF" d="M1011.6,333.5l2.6,0.4c-0.3,2.3-1.1,4-2.3,5.2c-1.2,1.2-2.7,1.8-4.4,1.8c-2.1,0-3.8-0.8-5.1-2.5
					c-1.3-1.7-2-4.2-2-7.5c0-3.3,0.7-5.8,2-7.5c1.3-1.7,3.1-2.5,5.2-2.5c1.6,0,3,0.5,4.1,1.5c1.1,1,1.8,2.5,2.1,4.6l-2.6,0.5
					c-0.3-1.3-0.7-2.3-1.3-2.9c-0.6-0.6-1.4-1-2.3-1c-1.3,0-2.4,0.6-3.3,1.7c-0.9,1.2-1.3,3-1.3,5.5c0,2.6,0.4,4.5,1.2,5.7
					c0.8,1.2,1.9,1.8,3.2,1.8c1,0,1.9-0.4,2.6-1.2C1011,336.4,1011.4,335.1,1011.6,333.5z"/>
				<path fill="#FFFFFF" d="M1022.4,337.6l0.4,2.9c-0.7,0.2-1.4,0.3-2,0.3c-0.9,0-1.7-0.2-2.2-0.6c-0.6-0.4-1-0.9-1.2-1.5
					c-0.2-0.6-0.3-1.9-0.3-3.8v-11h-2v-2.5h2v-4.8l2.7-2v6.7h2.7v2.5h-2.7v11.2c0,1,0.1,1.7,0.2,2c0.2,0.4,0.7,0.7,1.3,0.7
					C1021.5,337.8,1021.9,337.7,1022.4,337.6z"/>
				<path fill="#FFFFFF" d="M1035.7,334.4l2.7,0.4c-0.5,2-1.3,3.6-2.5,4.6c-1.2,1-2.7,1.6-4.5,1.6c-2.2,0-4-0.8-5.4-2.5
					c-1.4-1.7-2.1-4.1-2.1-7.3c0-3.3,0.7-5.8,2.1-7.6c1.4-1.7,3.2-2.6,5.3-2.6c2,0,3.7,0.9,5.1,2.6c1.4,1.7,2,4.2,2,7.4l0,0.9h-11.7
					c0.1,2.2,0.6,3.8,1.5,4.9c0.9,1.1,2,1.6,3.3,1.6C1033.5,338.3,1034.9,337,1035.7,334.4z M1026.9,329.1h8.8
					c-0.1-1.7-0.5-2.9-1.1-3.7c-0.9-1.2-1.9-1.8-3.3-1.8c-1.2,0-2.2,0.5-3.1,1.5C1027.5,326.1,1027,327.4,1026.9,329.1z"/>
				<path fill="#FFFFFF" d="M1047.7,337.6l0.4,2.9c-0.7,0.2-1.4,0.3-2,0.3c-0.9,0-1.7-0.2-2.2-0.6c-0.6-0.4-1-0.9-1.2-1.5
					c-0.2-0.6-0.3-1.9-0.3-3.8v-11h-2v-2.5h2v-4.8l2.7-2v6.7h2.7v2.5h-2.7v11.2c0,1,0.1,1.7,0.2,2c0.2,0.4,0.7,0.7,1.3,0.7
					C1046.9,337.8,1047.2,337.7,1047.7,337.6z"/>
				<path fill="#FFFFFF" d="M1060.5,340.5v-2.8c-0.6,1.1-1.3,1.9-2.2,2.4c-0.8,0.5-1.8,0.8-2.8,0.8c-1.2,0-2.3-0.3-3.2-1
					c-0.9-0.7-1.5-1.5-1.8-2.5c-0.3-1-0.4-2.4-0.4-4.2v-11.9h2.7V332c0,2,0.1,3.3,0.3,4c0.2,0.7,0.6,1.2,1.1,1.6
					c0.5,0.4,1.1,0.6,1.8,0.6c1.3,0,2.3-0.5,3.1-1.6c0.7-0.9,1-2.6,1-5v-10.3h2.7v19.2H1060.5z"/>
				<path fill="#FFFFFF" d="M1067.1,340.5v-19.2h2.4v2.9c0.6-1.3,1.2-2.2,1.7-2.7c0.5-0.4,1.1-0.7,1.7-0.7c0.9,0,1.8,0.3,2.7,1
					l-0.9,3c-0.7-0.5-1.3-0.7-1.9-0.7c-0.6,0-1.1,0.2-1.6,0.6c-0.5,0.4-0.8,1-1,1.7c-0.3,1.2-0.5,2.6-0.5,4v10H1067.1z"/>
				<path fill="#FFFFFF" d="M1095.9,338.2c-0.9,0.9-1.8,1.6-2.8,2.1c-1,0.5-2,0.7-3,0.7c-1.6,0-2.9-0.5-3.9-1.5s-1.5-2.3-1.5-4
					c0-1.1,0.2-2.1,0.7-2.9s1.1-1.5,1.9-2c0.8-0.5,2-0.8,3.6-1.1c2.2-0.3,3.8-0.7,4.8-1.1l0-0.8c0-1.3-0.2-2.2-0.7-2.8
					c-0.7-0.8-1.7-1.2-3.1-1.2c-1.2,0-2.2,0.3-2.8,0.8c-0.6,0.5-1.1,1.5-1.4,2.9l-2.6-0.4c0.4-2.1,1.1-3.6,2.3-4.5
					c1.1-0.9,2.8-1.4,4.9-1.4c1.6,0,2.9,0.3,3.9,0.9s1.5,1.4,1.8,2.3c0.2,0.9,0.4,2.3,0.4,4v4.3c0,3,0.1,4.9,0.2,5.7
					c0.1,0.8,0.3,1.6,0.7,2.3h-2.8C1096.2,339.9,1096,339.1,1095.9,338.2z M1095.7,330.9c-1,0.5-2.4,0.9-4.4,1.2
					c-1.1,0.2-1.9,0.4-2.3,0.7c-0.4,0.2-0.8,0.6-1,1c-0.2,0.5-0.4,1-0.4,1.6c0,0.9,0.3,1.6,0.8,2.2s1.3,0.8,2.3,0.8
					c1,0,1.8-0.2,2.6-0.7c0.8-0.5,1.4-1.2,1.7-2c0.4-0.8,0.6-2,0.6-3.6V330.9z"/>
				<path fill="#FFFFFF" d="M1112.7,340.5v-2.4c-0.5,0.9-1.1,1.6-1.9,2.1c-0.8,0.5-1.6,0.7-2.5,0.7c-1.9,0-3.5-0.9-4.8-2.6
					c-1.4-1.8-2-4.2-2-7.4c0-2.2,0.3-4,0.9-5.5s1.4-2.6,2.4-3.4c1-0.7,2.1-1.1,3.3-1.1c0.9,0,1.7,0.2,2.4,0.7
					c0.8,0.5,1.4,1.1,1.9,1.9V314h2.7v26.5H1112.7z M1104.3,331c0,2.5,0.4,4.3,1.3,5.5c0.9,1.2,1.9,1.8,3,1.8c1.1,0,2.1-0.6,2.9-1.7
					c0.8-1.2,1.2-2.9,1.2-5.2c0-2.7-0.4-4.6-1.2-5.9c-0.8-1.2-1.9-1.9-3.1-1.9c-1.1,0-2.1,0.6-2.9,1.8
					C1104.7,326.6,1104.3,328.4,1104.3,331z"/>
				<path fill="#FFFFFF" d="M1119.4,317.8V314h2.7v3.7H1119.4z M1119.4,340.5v-19.2h2.7v19.2H1119.4z"/>
				<path fill="#FFFFFF" d="M1126.1,347.9v-26.5h2.5v2.5c0.6-1,1.3-1.8,2-2.2s1.6-0.7,2.5-0.7c1.2,0,2.4,0.4,3.4,1.1
					c1,0.7,1.8,1.9,2.4,3.4c0.6,1.5,0.9,3.3,0.9,5.4c0,3.3-0.7,5.8-2,7.5c-1.4,1.8-3,2.6-4.8,2.6c-0.8,0-1.6-0.2-2.3-0.6
					c-0.7-0.4-1.3-1-1.8-1.8v9.3H1126.1z M1128.6,331.1c0,2.5,0.4,4.3,1.2,5.5c0.8,1.2,1.8,1.8,3,1.8c1.1,0,2.1-0.6,3-1.8
					c0.9-1.2,1.3-3.1,1.3-5.6c0-2.5-0.4-4.4-1.2-5.6c-0.8-1.2-1.8-1.8-3-1.8c-1.1,0-2,0.6-2.9,1.9
					C1129,326.7,1128.6,328.6,1128.6,331.1z"/>
				<path fill="#FFFFFF" d="M1143,317.8V314h2.7v3.7H1143z M1143,340.5v-19.2h2.7v19.2H1143z"/>
				<path fill="#FFFFFF" d="M1148.7,334.8l2.7-0.5c0.2,1.4,0.6,2.4,1.3,3s1.6,1,2.8,1c1.2,0,2-0.3,2.7-0.9c0.6-0.6,0.9-1.3,0.9-2.2
					c0-0.8-0.3-1.3-0.8-1.8c-0.4-0.3-1.3-0.7-2.7-1.1c-2.1-0.6-3.5-1.2-4.2-1.6c-0.7-0.4-1.2-1-1.6-1.8c-0.4-0.7-0.6-1.6-0.6-2.5
					c0-1.6,0.5-3,1.6-4c1-1,2.5-1.5,4.4-1.5c1.2,0,2.2,0.2,3.1,0.6c0.9,0.4,1.6,1,2,1.7c0.5,0.7,0.8,1.7,1,3.1l-2.6,0.4
					c-0.2-2.1-1.4-3.1-3.4-3.1c-1.2,0-2,0.2-2.6,0.7s-0.8,1.1-0.8,1.8c0,0.7,0.3,1.3,0.8,1.7c0.3,0.2,1.3,0.6,2.9,1.2
					c2.2,0.7,3.6,1.3,4.3,1.7c0.6,0.4,1.2,1,1.5,1.7c0.4,0.7,0.5,1.6,0.5,2.6c0,1.8-0.6,3.3-1.7,4.5c-1.2,1.1-2.7,1.7-4.8,1.7
					C1151.5,341,1149.3,338.9,1148.7,334.8z"/>
				<path fill="#FFFFFF" d="M1175.2,333.5l2.6,0.4c-0.3,2.3-1.1,4-2.3,5.2c-1.2,1.2-2.7,1.8-4.4,1.8c-2.1,0-3.8-0.8-5.1-2.5
					s-2-4.2-2-7.5c0-3.3,0.7-5.8,2-7.5c1.3-1.7,3.1-2.5,5.2-2.5c1.6,0,3,0.5,4.1,1.5c1.1,1,1.8,2.5,2.1,4.6l-2.6,0.5
					c-0.3-1.3-0.7-2.3-1.3-2.9c-0.6-0.6-1.4-1-2.3-1c-1.3,0-2.4,0.6-3.3,1.7c-0.9,1.2-1.3,3-1.3,5.5c0,2.6,0.4,4.5,1.2,5.7
					c0.8,1.2,1.9,1.8,3.2,1.8c1,0,1.9-0.4,2.6-1.2C1174.6,336.4,1175,335.1,1175.2,333.5z"/>
				<path fill="#FFFFFF" d="M1180.1,317.8V314h2.7v3.7H1180.1z M1180.1,340.5v-19.2h2.7v19.2H1180.1z"/>
				<path fill="#FFFFFF" d="M1186.8,340.5v-19.2h2.4v2.7c0.6-1.1,1.3-1.8,2.1-2.4c0.8-0.5,1.8-0.8,2.9-0.8c0.8,0,1.6,0.2,2.3,0.5
					c0.7,0.3,1.3,0.8,1.7,1.3c0.4,0.5,0.8,1.2,1,2.1c0.2,0.9,0.3,2.2,0.3,3.9v11.8h-2.7v-11.7c0-1.4-0.1-2.4-0.4-3.1
					c-0.2-0.7-0.6-1.2-1.1-1.5s-1.1-0.5-1.8-0.5c-1.3,0-2.3,0.5-3.1,1.4c-0.8,1-1.1,2.6-1.1,4.9v10.5H1186.8z"/>
				<path fill="#FFFFFF" d="M1203.2,342.1l2.6,0.5c0.1,1,0.5,1.8,1.1,2.3c0.6,0.5,1.4,0.8,2.5,0.8c1.2,0,2.1-0.3,2.8-0.8
					c0.7-0.6,1.2-1.4,1.4-2.5c0.2-0.7,0.2-2.1,0.2-4.3c-0.6,0.8-1.2,1.4-2,1.9s-1.5,0.6-2.4,0.6c-1.9,0-3.4-0.8-4.7-2.4
					c-1.4-1.8-2.1-4.3-2.1-7.4c0-2.1,0.3-3.9,0.9-5.4s1.4-2.7,2.5-3.4c1-0.7,2.2-1.1,3.4-1.1c0.9,0,1.8,0.2,2.5,0.7
					c0.8,0.5,1.4,1.1,2,2v-2.3h2.5v16.6c0,3-0.2,5.1-0.7,6.3c-0.5,1.3-1.3,2.3-2.4,3s-2.4,1.1-4,1.1c-2,0-3.6-0.5-4.7-1.6
					C1203.7,345.6,1203.2,344.1,1203.2,342.1z M1205.4,330.6c0,2.5,0.4,4.4,1.2,5.5s1.9,1.7,3.1,1.7s2.2-0.6,3.1-1.7
					c0.8-1.1,1.3-2.9,1.3-5.4c0-2.4-0.4-4.2-1.3-5.4c-0.9-1.2-1.9-1.8-3.2-1.8c-1.1,0-2.1,0.6-2.9,1.8
					C1205.8,326.5,1205.4,328.3,1205.4,330.6z"/>
				<path fill="#FFFFFF" d="M1239.8,334.4l2.7,0.4c-0.5,2-1.3,3.6-2.5,4.6c-1.2,1-2.7,1.6-4.5,1.6c-2.2,0-4-0.8-5.4-2.5
					c-1.4-1.7-2.1-4.1-2.1-7.3c0-3.3,0.7-5.8,2.1-7.6c1.4-1.7,3.2-2.6,5.3-2.6c2,0,3.7,0.9,5.1,2.6s2,4.2,2,7.4l0,0.9h-11.7
					c0.1,2.2,0.6,3.8,1.5,4.9c0.9,1.1,2,1.6,3.3,1.6C1237.6,338.3,1239,337,1239.8,334.4z M1231,329.1h8.8c-0.1-1.7-0.5-2.9-1.1-3.7
					c-0.9-1.2-1.9-1.8-3.3-1.8c-1.2,0-2.2,0.5-3.1,1.5C1231.6,326.1,1231.1,327.4,1231,329.1z"/>
				<path fill="#FFFFFF" d="M1245.8,340.5V314h2.7v26.5H1245.8z"/>
				<path fill="#FFFFFF" d="M1252.6,317.8V314h2.7v3.7H1252.6z M1252.6,340.5v-19.2h2.7v19.2H1252.6z"/>
				<path fill="#FFFFFF" d="M1265.3,337.6l0.4,2.9c-0.7,0.2-1.4,0.3-2,0.3c-0.9,0-1.7-0.2-2.2-0.6c-0.6-0.4-1-0.9-1.2-1.5
					c-0.2-0.6-0.3-1.9-0.3-3.8v-11h-2v-2.5h2v-4.8l2.7-2v6.7h2.7v2.5h-2.7v11.2c0,1,0.1,1.7,0.2,2c0.2,0.4,0.7,0.7,1.3,0.7
					C1264.4,337.8,1264.8,337.7,1265.3,337.6z"/>
				<path fill="#FFFFFF" d="M1268.6,340.5v-3.7h3v3.7c0,1.4-0.2,2.6-0.6,3.4c-0.4,0.8-1,1.4-1.8,1.9l-0.7-1.4c0.5-0.3,1-0.7,1.2-1.3
					c0.3-0.6,0.4-1.4,0.5-2.6H1268.6z"/>
				<path fill="#FFFFFF" d="M1283.7,334.8l2.7-0.5c0.2,1.4,0.6,2.4,1.3,3c0.7,0.7,1.6,1,2.8,1s2-0.3,2.7-0.9
					c0.6-0.6,0.9-1.3,0.9-2.2c0-0.8-0.3-1.3-0.8-1.8c-0.4-0.3-1.3-0.7-2.7-1.1c-2.1-0.6-3.5-1.2-4.2-1.6s-1.2-1-1.6-1.8
					c-0.4-0.7-0.6-1.6-0.6-2.5c0-1.6,0.5-3,1.6-4c1-1,2.5-1.5,4.4-1.5c1.2,0,2.2,0.2,3.1,0.6c0.9,0.4,1.6,1,2,1.7
					c0.5,0.7,0.8,1.7,1,3.1l-2.6,0.4c-0.2-2.1-1.4-3.1-3.4-3.1c-1.2,0-2,0.2-2.6,0.7c-0.6,0.5-0.8,1.1-0.8,1.8
					c0,0.7,0.3,1.3,0.8,1.7c0.3,0.2,1.3,0.6,2.9,1.2c2.2,0.7,3.6,1.3,4.3,1.7c0.6,0.4,1.2,1,1.5,1.7s0.5,1.6,0.5,2.6
					c0,1.8-0.6,3.3-1.7,4.5c-1.2,1.1-2.7,1.7-4.8,1.7C1286.4,341,1284.3,338.9,1283.7,334.8z"/>
				<path fill="#FFFFFF" d="M1310.6,334.4l2.7,0.4c-0.5,2-1.3,3.6-2.5,4.6s-2.7,1.6-4.5,1.6c-2.2,0-4-0.8-5.4-2.5s-2.1-4.1-2.1-7.3
					c0-3.3,0.7-5.8,2.1-7.6c1.4-1.7,3.2-2.6,5.3-2.6c2,0,3.7,0.9,5.1,2.6c1.4,1.7,2,4.2,2,7.4l0,0.9h-11.7c0.1,2.2,0.6,3.8,1.5,4.9
					c0.9,1.1,2,1.6,3.3,1.6C1308.4,338.3,1309.8,337,1310.6,334.4z M1301.8,329.1h8.8c-0.1-1.7-0.5-2.9-1.1-3.7
					c-0.9-1.2-1.9-1.8-3.3-1.8c-1.2,0-2.2,0.5-3.1,1.5C1302.4,326.1,1301.9,327.4,1301.8,329.1z"/>
				<path fill="#FFFFFF" d="M1326.9,340.5v-2.4c-0.5,0.9-1.1,1.6-1.9,2.1c-0.8,0.5-1.6,0.7-2.5,0.7c-1.9,0-3.5-0.9-4.8-2.6
					c-1.4-1.8-2-4.2-2-7.4c0-2.2,0.3-4,0.9-5.5c0.6-1.5,1.4-2.6,2.4-3.4c1-0.7,2.1-1.1,3.3-1.1c0.9,0,1.7,0.2,2.4,0.7
					c0.8,0.5,1.4,1.1,1.9,1.9V314h2.7v26.5H1326.9z M1318.5,331c0,2.5,0.4,4.3,1.3,5.5c0.9,1.2,1.9,1.8,3,1.8c1.1,0,2.1-0.6,2.9-1.7
					c0.8-1.2,1.2-2.9,1.2-5.2c0-2.7-0.4-4.6-1.2-5.9c-0.8-1.2-1.9-1.9-3.1-1.9c-1.1,0-2.1,0.6-2.9,1.8
					C1318.9,326.6,1318.5,328.4,1318.5,331z"/>
				<path fill="#FFFFFF" d="M1352.2,340.5v-2.4c-0.5,0.9-1.1,1.6-1.9,2.1c-0.8,0.5-1.6,0.7-2.5,0.7c-1.9,0-3.5-0.9-4.8-2.6
					c-1.4-1.8-2-4.2-2-7.4c0-2.2,0.3-4,0.9-5.5s1.4-2.6,2.4-3.4c1-0.7,2.1-1.1,3.3-1.1c0.9,0,1.7,0.2,2.4,0.7
					c0.8,0.5,1.4,1.1,1.9,1.9V314h2.7v26.5H1352.2z M1343.8,331c0,2.5,0.4,4.3,1.3,5.5c0.9,1.2,1.9,1.8,3,1.8c1.1,0,2.1-0.6,2.9-1.7
					c0.8-1.2,1.2-2.9,1.2-5.2c0-2.7-0.4-4.6-1.2-5.9c-0.8-1.2-1.9-1.9-3.1-1.9c-1.1,0-2.1,0.6-2.9,1.8
					C1344.2,326.6,1343.8,328.4,1343.8,331z"/>
				<path fill="#FFFFFF" d="M1357.9,330.9c0-3.3,0.7-5.8,2.1-7.5c1.4-1.7,3.2-2.5,5.3-2.5c2.1,0,3.8,0.8,5.3,2.5s2.1,4.1,2.1,7.3
					c0,3.4-0.7,6-2.1,7.7s-3.1,2.5-5.3,2.5c-2.1,0-3.9-0.8-5.3-2.5S1357.9,334.2,1357.9,330.9z M1360.6,330.9c0,2.5,0.5,4.3,1.4,5.5
					c0.9,1.2,2,1.8,3.4,1.8c1.3,0,2.3-0.6,3.2-1.8s1.3-3.1,1.3-5.5c0-2.5-0.5-4.3-1.4-5.5s-2-1.8-3.4-1.8c-1.3,0-2.3,0.6-3.2,1.8
					S1360.6,328.5,1360.6,330.9z"/>
				<path fill="#FFFFFF" d="M1395,334.4l2.7,0.4c-0.5,2-1.3,3.6-2.5,4.6s-2.7,1.6-4.5,1.6c-2.2,0-4-0.8-5.4-2.5s-2.1-4.1-2.1-7.3
					c0-3.3,0.7-5.8,2.1-7.6c1.4-1.7,3.2-2.6,5.3-2.6c2,0,3.7,0.9,5.1,2.6c1.4,1.7,2,4.2,2,7.4l0,0.9h-11.7c0.1,2.2,0.6,3.8,1.5,4.9
					c0.9,1.1,2,1.6,3.3,1.6C1392.8,338.3,1394.2,337,1395,334.4z M1386.2,329.1h8.8c-0.1-1.7-0.5-2.9-1.1-3.7
					c-0.9-1.2-1.9-1.8-3.3-1.8c-1.2,0-2.2,0.5-3.1,1.5C1386.8,326.1,1386.3,327.4,1386.2,329.1z"/>
				<path fill="#FFFFFF" d="M1401.1,317.8V314h2.7v3.7H1401.1z M1401.1,340.5v-19.2h2.7v19.2H1401.1z"/>
				<path fill="#FFFFFF" d="M1418.1,340.5v-2.8c-0.6,1.1-1.3,1.9-2.2,2.4c-0.8,0.5-1.8,0.8-2.8,0.8c-1.2,0-2.3-0.3-3.2-1
					c-0.9-0.7-1.5-1.5-1.8-2.5s-0.4-2.4-0.4-4.2v-11.9h2.7V332c0,2,0.1,3.3,0.3,4c0.2,0.7,0.6,1.2,1.1,1.6s1.1,0.6,1.8,0.6
					c1.3,0,2.3-0.5,3.1-1.6c0.7-0.9,1-2.6,1-5v-10.3h2.7v19.2H1418.1z"/>
				<path fill="#FFFFFF" d="M1423.7,334.8l2.7-0.5c0.2,1.4,0.6,2.4,1.3,3s1.6,1,2.8,1c1.2,0,2-0.3,2.7-0.9c0.6-0.6,0.9-1.3,0.9-2.2
					c0-0.8-0.3-1.3-0.8-1.8c-0.4-0.3-1.3-0.7-2.7-1.1c-2.1-0.6-3.5-1.2-4.2-1.6c-0.7-0.4-1.2-1-1.6-1.8c-0.4-0.7-0.6-1.6-0.6-2.5
					c0-1.6,0.5-3,1.6-4c1-1,2.5-1.5,4.4-1.5c1.2,0,2.2,0.2,3.1,0.6c0.9,0.4,1.6,1,2,1.7c0.5,0.7,0.8,1.7,1,3.1l-2.6,0.4
					c-0.2-2.1-1.4-3.1-3.4-3.1c-1.2,0-2,0.2-2.6,0.7s-0.8,1.1-0.8,1.8c0,0.7,0.3,1.3,0.8,1.7c0.3,0.2,1.3,0.6,2.9,1.2
					c2.2,0.7,3.6,1.3,4.3,1.7c0.6,0.4,1.2,1,1.5,1.7c0.4,0.7,0.5,1.6,0.5,2.6c0,1.8-0.6,3.3-1.7,4.5c-1.2,1.1-2.7,1.7-4.8,1.7
					C1426.5,341,1424.3,338.9,1423.7,334.8z"/>
				<path fill="#FFFFFF" d="M1439.9,340.5v-19.2h2.4v2.7c0.5-1,1.2-1.8,2-2.3s1.7-0.8,2.7-0.8c1.1,0,2,0.3,2.8,0.9s1.3,1.4,1.6,2.5
					c0.6-1.1,1.4-1.9,2.2-2.5s1.7-0.8,2.7-0.8c1.5,0,2.7,0.5,3.6,1.5c0.9,1,1.3,2.7,1.3,4.9v13.2h-2.7v-12.1c0-1.4-0.1-2.3-0.3-2.9
					c-0.2-0.6-0.5-1-1-1.3s-1-0.5-1.5-0.5c-1.2,0-2.1,0.5-2.8,1.4s-1.1,2.3-1.1,4.3v11.2h-2.7v-12.5c0-1.6-0.2-2.7-0.7-3.4
					c-0.5-0.7-1.2-1-2-1c-1.2,0-2.2,0.5-2.9,1.5c-0.7,1-1.1,2.8-1.1,5.4v10H1439.9z"/>
				<path fill="#FFFFFF" d="M1464.2,330.9c0-3.3,0.7-5.8,2.1-7.5c1.4-1.7,3.2-2.5,5.3-2.5c2.1,0,3.8,0.8,5.3,2.5s2.1,4.1,2.1,7.3
					c0,3.4-0.7,6-2.1,7.7c-1.4,1.7-3.2,2.5-5.3,2.5c-2.1,0-3.9-0.8-5.3-2.5C1464.9,336.7,1464.2,334.2,1464.2,330.9z M1466.9,330.9
					c0,2.5,0.5,4.3,1.4,5.5c0.9,1.2,2,1.8,3.4,1.8c1.3,0,2.3-0.6,3.2-1.8c0.9-1.2,1.3-3.1,1.3-5.5c0-2.5-0.5-4.3-1.4-5.5
					s-2-1.8-3.4-1.8c-1.3,0-2.3,0.6-3.2,1.8C1467.3,326.6,1466.9,328.5,1466.9,330.9z"/>
				<path fill="#FFFFFF" d="M1492.2,340.5v-2.4c-0.5,0.9-1.1,1.6-1.9,2.1c-0.8,0.5-1.6,0.7-2.5,0.7c-1.9,0-3.5-0.9-4.8-2.6
					c-1.4-1.8-2-4.2-2-7.4c0-2.2,0.3-4,0.9-5.5c0.6-1.5,1.4-2.6,2.4-3.4c1-0.7,2.1-1.1,3.3-1.1c0.9,0,1.7,0.2,2.4,0.7
					c0.8,0.5,1.4,1.1,1.9,1.9V314h2.7v26.5H1492.2z M1483.8,331c0,2.5,0.4,4.3,1.3,5.5c0.9,1.2,1.9,1.8,3,1.8c1.1,0,2.1-0.6,2.9-1.7
					c0.8-1.2,1.2-2.9,1.2-5.2c0-2.7-0.4-4.6-1.2-5.9c-0.8-1.2-1.9-1.9-3.1-1.9c-1.1,0-2.1,0.6-2.9,1.8
					C1484.2,326.6,1483.8,328.4,1483.8,331z"/>
				<path fill="#FFFFFF" d="M1513.3,337.6l0.4,2.9c-0.7,0.2-1.4,0.3-2,0.3c-0.9,0-1.7-0.2-2.2-0.6c-0.6-0.4-1-0.9-1.2-1.5
					c-0.2-0.6-0.3-1.9-0.3-3.8v-11h-2v-2.5h2v-4.8l2.7-2v6.7h2.7v2.5h-2.7v11.2c0,1,0.1,1.7,0.2,2c0.2,0.4,0.7,0.7,1.3,0.7
					C1512.4,337.8,1512.8,337.7,1513.3,337.6z"/>
				<path fill="#FFFFFF" d="M1526.5,334.4l2.7,0.4c-0.5,2-1.3,3.6-2.5,4.6s-2.7,1.6-4.5,1.6c-2.2,0-4-0.8-5.4-2.5s-2.1-4.1-2.1-7.3
					c0-3.3,0.7-5.8,2.1-7.6c1.4-1.7,3.2-2.6,5.3-2.6c2,0,3.7,0.9,5.1,2.6c1.4,1.7,2,4.2,2,7.4l0,0.9h-11.7c0.1,2.2,0.6,3.8,1.5,4.9
					c0.9,1.1,2,1.6,3.3,1.6C1524.4,338.3,1525.8,337,1526.5,334.4z M1517.8,329.1h8.8c-0.1-1.7-0.5-2.9-1.1-3.7
					c-0.9-1.2-1.9-1.8-3.3-1.8c-1.2,0-2.2,0.5-3.1,1.5C1518.3,326.1,1517.9,327.4,1517.8,329.1z"/>
				<path fill="#FFFFFF" d="M1532.7,340.5v-19.2h2.4v2.7c0.5-1,1.2-1.8,2-2.3c0.8-0.5,1.7-0.8,2.7-0.8c1.1,0,2,0.3,2.8,0.9
					c0.8,0.6,1.3,1.4,1.6,2.5c0.6-1.1,1.4-1.9,2.2-2.5c0.8-0.6,1.7-0.8,2.7-0.8c1.5,0,2.7,0.5,3.6,1.5c0.9,1,1.3,2.7,1.3,4.9v13.2
					h-2.7v-12.1c0-1.4-0.1-2.3-0.3-2.9c-0.2-0.6-0.5-1-1-1.3s-1-0.5-1.5-0.5c-1.2,0-2.1,0.5-2.8,1.4s-1.1,2.3-1.1,4.3v11.2h-2.7
					v-12.5c0-1.6-0.2-2.7-0.7-3.4c-0.5-0.7-1.2-1-2-1c-1.2,0-2.2,0.5-2.9,1.5c-0.7,1-1.1,2.8-1.1,5.4v10H1532.7z"/>
				<path fill="#FFFFFF" d="M1557.9,347.9v-26.5h2.5v2.5c0.6-1,1.3-1.8,2-2.2s1.6-0.7,2.5-0.7c1.2,0,2.4,0.4,3.4,1.1
					c1,0.7,1.8,1.9,2.4,3.4c0.6,1.5,0.9,3.3,0.9,5.4c0,3.3-0.7,5.8-2.1,7.5s-3,2.6-4.8,2.6c-0.8,0-1.6-0.2-2.3-0.6
					c-0.7-0.4-1.3-1-1.8-1.8v9.3H1557.9z M1560.4,331.1c0,2.5,0.4,4.3,1.2,5.5c0.8,1.2,1.8,1.8,3,1.8c1.1,0,2.1-0.6,3-1.8
					c0.9-1.2,1.3-3.1,1.3-5.6c0-2.5-0.4-4.4-1.2-5.6c-0.8-1.2-1.8-1.8-3-1.8c-1.1,0-2,0.6-2.9,1.9
					C1560.8,326.7,1560.4,328.6,1560.4,331.1z"/>
				<path fill="#FFFFFF" d="M1573.8,330.9c0-3.3,0.7-5.8,2.1-7.5c1.4-1.7,3.2-2.5,5.3-2.5c2.1,0,3.8,0.8,5.3,2.5s2.1,4.1,2.1,7.3
					c0,3.4-0.7,6-2.1,7.7s-3.1,2.5-5.3,2.5c-2.1,0-3.9-0.8-5.3-2.5S1573.8,334.2,1573.8,330.9z M1576.5,330.9c0,2.5,0.5,4.3,1.4,5.5
					c0.9,1.2,2,1.8,3.4,1.8c1.3,0,2.3-0.6,3.2-1.8s1.3-3.1,1.3-5.5c0-2.5-0.5-4.3-1.4-5.5s-2-1.8-3.4-1.8c-1.3,0-2.3,0.6-3.2,1.8
					S1576.5,328.5,1576.5,330.9z"/>
				<path fill="#FFFFFF" d="M1591.7,340.5v-19.2h2.4v2.9c0.6-1.3,1.2-2.2,1.7-2.7c0.5-0.4,1.1-0.7,1.7-0.7c0.9,0,1.8,0.3,2.7,1
					l-0.9,3c-0.7-0.5-1.3-0.7-1.9-0.7c-0.6,0-1.1,0.2-1.6,0.6c-0.5,0.4-0.8,1-1,1.7c-0.3,1.2-0.5,2.6-0.5,4v10H1591.7z"/>
				<path fill="#FFFFFF" d="M1610.2,317.8V314h2.7v3.7H1610.2z M1610.2,340.5v-19.2h2.7v19.2H1610.2z"/>
				<path fill="#FFFFFF" d="M1617,340.5v-19.2h2.4v2.7c0.6-1.1,1.3-1.8,2.1-2.4c0.8-0.5,1.8-0.8,2.9-0.8c0.8,0,1.6,0.2,2.3,0.5
					c0.7,0.3,1.3,0.8,1.7,1.3s0.8,1.2,1,2.1c0.2,0.9,0.3,2.2,0.3,3.9v11.8h-2.7v-11.7c0-1.4-0.1-2.4-0.4-3.1
					c-0.2-0.7-0.6-1.2-1.1-1.5s-1.1-0.5-1.8-0.5c-1.3,0-2.3,0.5-3.1,1.4c-0.8,1-1.1,2.6-1.1,4.9v10.5H1617z"/>
				<path fill="#FFFFFF" d="M1644.1,333.5l2.6,0.4c-0.3,2.3-1.1,4-2.3,5.2c-1.2,1.2-2.7,1.8-4.4,1.8c-2.1,0-3.8-0.8-5.1-2.5
					c-1.3-1.7-2-4.2-2-7.5c0-3.3,0.7-5.8,2-7.5c1.3-1.7,3.1-2.5,5.2-2.5c1.6,0,3,0.5,4.1,1.5s1.8,2.5,2.1,4.6l-2.6,0.5
					c-0.3-1.3-0.7-2.3-1.3-2.9c-0.6-0.6-1.4-1-2.3-1c-1.3,0-2.4,0.6-3.3,1.7c-0.9,1.2-1.3,3-1.3,5.5c0,2.6,0.4,4.5,1.2,5.7
					c0.8,1.2,1.9,1.8,3.2,1.8c1,0,1.9-0.4,2.6-1.2C1643.5,336.4,1643.9,335.1,1644.1,333.5z"/>
				<path fill="#FFFFFF" d="M1649,317.8V314h2.7v3.7H1649z M1649,340.5v-19.2h2.7v19.2H1649z"/>
				<path fill="#FFFFFF" d="M1665.9,340.5v-2.4c-0.5,0.9-1.1,1.6-1.9,2.1c-0.8,0.5-1.6,0.7-2.5,0.7c-1.9,0-3.5-0.9-4.8-2.6
					c-1.4-1.8-2-4.2-2-7.4c0-2.2,0.3-4,0.9-5.5c0.6-1.5,1.4-2.6,2.4-3.4c1-0.7,2.1-1.1,3.3-1.1c0.9,0,1.7,0.2,2.4,0.7
					c0.8,0.5,1.4,1.1,1.9,1.9V314h2.7v26.5H1665.9z M1657.5,331c0,2.5,0.4,4.3,1.3,5.5c0.9,1.2,1.9,1.8,3,1.8c1.1,0,2.1-0.6,2.9-1.7
					c0.8-1.2,1.2-2.9,1.2-5.2c0-2.7-0.4-4.6-1.2-5.9c-0.8-1.2-1.9-1.9-3.1-1.9c-1.1,0-2.1,0.6-2.9,1.8
					C1657.9,326.6,1657.5,328.4,1657.5,331z"/>
				<path fill="#FFFFFF" d="M1672.6,317.8V314h2.7v3.7H1672.6z M1672.6,340.5v-19.2h2.7v19.2H1672.6z"/>
				<path fill="#FFFFFF" d="M1689.6,340.5v-2.4c-0.5,0.9-1.1,1.6-1.9,2.1c-0.8,0.5-1.6,0.7-2.5,0.7c-1.9,0-3.5-0.9-4.8-2.6
					c-1.4-1.8-2-4.2-2-7.4c0-2.2,0.3-4,0.9-5.5c0.6-1.5,1.4-2.6,2.4-3.4c1-0.7,2.1-1.1,3.3-1.1c0.9,0,1.7,0.2,2.4,0.7
					c0.8,0.5,1.4,1.1,1.9,1.9V314h2.7v26.5H1689.6z M1681.1,331c0,2.5,0.4,4.3,1.3,5.5c0.9,1.2,1.9,1.8,3,1.8c1.1,0,2.1-0.6,2.9-1.7
					c0.8-1.2,1.2-2.9,1.2-5.2c0-2.7-0.4-4.6-1.2-5.9c-0.8-1.2-1.9-1.9-3.1-1.9c-1.1,0-2.1,0.6-2.9,1.8
					C1681.5,326.6,1681.1,328.4,1681.1,331z"/>
				<path fill="#FFFFFF" d="M1706.5,340.5v-2.8c-0.6,1.1-1.3,1.9-2.2,2.4c-0.8,0.5-1.8,0.8-2.8,0.8c-1.2,0-2.3-0.3-3.2-1
					c-0.9-0.7-1.5-1.5-1.8-2.5c-0.3-1-0.4-2.4-0.4-4.2v-11.9h2.7V332c0,2,0.1,3.3,0.3,4c0.2,0.7,0.6,1.2,1.1,1.6
					c0.5,0.4,1.1,0.6,1.8,0.6c1.3,0,2.3-0.5,3.1-1.6c0.7-0.9,1-2.6,1-5v-10.3h2.7v19.2H1706.5z"/>
				<path fill="#FFFFFF" d="M1713.1,340.5v-19.2h2.4v2.7c0.6-1.1,1.3-1.8,2.1-2.4c0.8-0.5,1.8-0.8,2.9-0.8c0.8,0,1.6,0.2,2.3,0.5
					c0.7,0.3,1.3,0.8,1.7,1.3s0.8,1.2,1,2.1c0.2,0.9,0.3,2.2,0.3,3.9v11.8h-2.7v-11.7c0-1.4-0.1-2.4-0.4-3.1
					c-0.2-0.7-0.6-1.2-1.1-1.5s-1.1-0.5-1.8-0.5c-1.3,0-2.3,0.5-3.1,1.4c-0.8,1-1.1,2.6-1.1,4.9v10.5H1713.1z"/>
				<path fill="#FFFFFF" d="M1735.9,337.6l0.4,2.9c-0.7,0.2-1.4,0.3-2,0.3c-0.9,0-1.7-0.2-2.2-0.6c-0.6-0.4-1-0.9-1.2-1.5
					s-0.3-1.9-0.3-3.8v-11h-2v-2.5h2v-4.8l2.7-2v6.7h2.7v2.5h-2.7v11.2c0,1,0.1,1.7,0.2,2c0.2,0.4,0.7,0.7,1.3,0.7
					C1735,337.8,1735.4,337.7,1735.9,337.6z"/>
				<path fill="#FFFFFF" d="M926.4,384.9v-2.8c-0.6,1.1-1.3,1.9-2.2,2.4c-0.8,0.5-1.8,0.8-2.8,0.8c-1.2,0-2.3-0.3-3.2-1
					c-0.9-0.7-1.5-1.5-1.8-2.5c-0.3-1-0.4-2.4-0.4-4.2v-11.9h2.7v10.6c0,2,0.1,3.3,0.3,4c0.2,0.7,0.6,1.2,1.1,1.6
					c0.5,0.4,1.1,0.6,1.8,0.6c1.3,0,2.3-0.5,3.1-1.6c0.7-0.9,1-2.6,1-5v-10.3h2.7v19.2H926.4z"/>
				<path fill="#FFFFFF" d="M938.9,382l0.4,2.9c-0.7,0.2-1.4,0.3-2,0.3c-0.9,0-1.7-0.2-2.2-0.6c-0.6-0.4-1-0.9-1.2-1.5
					c-0.2-0.6-0.3-1.9-0.3-3.8v-11h-2v-2.5h2V361l2.7-2v6.7h2.7v2.5h-2.7v11.2c0,1,0.1,1.7,0.2,2c0.2,0.4,0.7,0.7,1.3,0.7
					C938.1,382.2,938.5,382.1,938.9,382z"/>
				<path fill="#FFFFFF" d="M949.8,384.9v-26.5h2.7v26.5H949.8z"/>
				<path fill="#FFFFFF" d="M966.9,382.6c-0.9,0.9-1.8,1.6-2.8,2.1c-1,0.5-2,0.7-3,0.7c-1.6,0-2.9-0.5-3.9-1.5s-1.5-2.3-1.5-4
					c0-1.1,0.2-2.1,0.7-2.9c0.5-0.9,1.1-1.5,1.9-2c0.8-0.5,2-0.8,3.6-1.1c2.2-0.3,3.8-0.7,4.8-1.1l0-0.8c0-1.3-0.2-2.2-0.7-2.8
					c-0.7-0.8-1.7-1.2-3.1-1.2c-1.2,0-2.2,0.3-2.8,0.8c-0.6,0.5-1.1,1.5-1.4,2.9l-2.6-0.4c0.4-2.1,1.1-3.6,2.3-4.5
					c1.1-0.9,2.8-1.4,4.9-1.4c1.6,0,2.9,0.3,3.9,0.9s1.5,1.4,1.8,2.3c0.2,0.9,0.4,2.3,0.4,4v4.3c0,3,0.1,4.9,0.2,5.7
					c0.1,0.8,0.3,1.6,0.7,2.3h-2.8C967.1,384.3,967,383.5,966.9,382.6z M966.7,375.3c-1,0.5-2.4,0.9-4.4,1.2
					c-1.1,0.2-1.9,0.4-2.3,0.7c-0.4,0.2-0.8,0.6-1,1c-0.2,0.5-0.4,1-0.4,1.6c0,0.9,0.3,1.6,0.8,2.2c0.6,0.5,1.3,0.8,2.3,0.8
					c1,0,1.8-0.2,2.6-0.7c0.8-0.5,1.4-1.2,1.7-2c0.4-0.8,0.6-2,0.6-3.6V375.3z"/>
				<path fill="#FFFFFF" d="M975.9,384.9h-2.5v-26.5h2.7v9.4c0.6-0.9,1.2-1.5,1.9-1.9c0.7-0.4,1.5-0.6,2.4-0.6
					c1.2,0,2.3,0.4,3.4,1.1c1,0.7,1.8,1.8,2.4,3.3c0.6,1.5,0.9,3.3,0.9,5.4c0,3.3-0.7,5.8-2,7.5s-3,2.6-4.8,2.6
					c-0.9,0-1.7-0.2-2.5-0.7c-0.7-0.5-1.4-1.2-1.9-2.1V384.9z M975.9,375.2c0,2,0.2,3.5,0.5,4.5s0.9,1.7,1.5,2.3
					c0.7,0.5,1.4,0.8,2.2,0.8c1.1,0,2.1-0.6,2.9-1.9c0.9-1.2,1.3-3.1,1.3-5.5c0-2.5-0.4-4.4-1.2-5.5c-0.8-1.2-1.8-1.8-3-1.8
					c-1.1,0-2.1,0.6-2.9,1.9C976.3,371.1,975.9,372.9,975.9,375.2z"/>
				<path fill="#FFFFFF" d="M989.4,375.3c0-3.3,0.7-5.8,2.1-7.5c1.4-1.7,3.2-2.5,5.3-2.5c2.1,0,3.8,0.8,5.3,2.5s2.1,4.1,2.1,7.3
					c0,3.4-0.7,6-2.1,7.7c-1.4,1.7-3.1,2.5-5.3,2.5c-2.1,0-3.9-0.8-5.3-2.5C990.1,381.1,989.4,378.6,989.4,375.3z M992.1,375.3
					c0,2.5,0.5,4.3,1.4,5.5c0.9,1.2,2,1.8,3.4,1.8c1.3,0,2.3-0.6,3.2-1.8c0.9-1.2,1.3-3.1,1.3-5.5c0-2.5-0.5-4.3-1.4-5.5
					s-2-1.8-3.4-1.8c-1.3,0-2.3,0.6-3.2,1.8C992.5,371,992.1,372.9,992.1,375.3z"/>
				<path fill="#FFFFFF" d="M1007.3,384.9v-19.2h2.4v2.9c0.6-1.3,1.2-2.2,1.7-2.7c0.5-0.4,1.1-0.7,1.7-0.7c0.9,0,1.8,0.3,2.7,1
					l-0.9,3c-0.7-0.5-1.3-0.7-1.9-0.7c-0.6,0-1.1,0.2-1.6,0.6c-0.5,0.4-0.8,1-1,1.7c-0.3,1.2-0.5,2.6-0.5,4v10H1007.3z"/>
				<path fill="#FFFFFF" d="M1028.1,378.8l2.7,0.4c-0.5,2-1.3,3.6-2.5,4.6c-1.2,1-2.7,1.6-4.5,1.6c-2.2,0-4-0.8-5.4-2.5
					c-1.4-1.7-2.1-4.1-2.1-7.3c0-3.3,0.7-5.8,2.1-7.6c1.4-1.7,3.2-2.6,5.3-2.6c2,0,3.7,0.9,5.1,2.6c1.4,1.7,2,4.2,2,7.4l0,0.9h-11.7
					c0.1,2.2,0.6,3.8,1.5,4.9c0.9,1.1,2,1.6,3.3,1.6C1025.9,382.7,1027.3,381.4,1028.1,378.8z M1019.3,373.5h8.8
					c-0.1-1.7-0.5-2.9-1.1-3.7c-0.9-1.2-1.9-1.8-3.3-1.8c-1.2,0-2.2,0.5-3.1,1.5C1019.9,370.5,1019.4,371.8,1019.3,373.5z"/>
				<path fill="#FFFFFF" d="M1053.4,378.8l2.7,0.4c-0.5,2-1.3,3.6-2.5,4.6c-1.2,1-2.7,1.6-4.5,1.6c-2.2,0-4-0.8-5.4-2.5
					c-1.4-1.7-2.1-4.1-2.1-7.3c0-3.3,0.7-5.8,2.1-7.6c1.4-1.7,3.2-2.6,5.3-2.6c2,0,3.7,0.9,5.1,2.6c1.4,1.7,2,4.2,2,7.4l0,0.9h-11.7
					c0.1,2.2,0.6,3.8,1.5,4.9c0.9,1.1,2,1.6,3.3,1.6C1051.2,382.7,1052.6,381.4,1053.4,378.8z M1044.6,373.5h8.8
					c-0.1-1.7-0.5-2.9-1.1-3.7c-0.9-1.2-1.9-1.8-3.3-1.8c-1.2,0-2.2,0.5-3.1,1.5C1045.2,370.5,1044.7,371.8,1044.6,373.5z"/>
				<path fill="#FFFFFF" d="M1065.5,382l0.4,2.9c-0.7,0.2-1.4,0.3-2,0.3c-0.9,0-1.7-0.2-2.2-0.6c-0.6-0.4-1-0.9-1.2-1.5
					c-0.2-0.6-0.3-1.9-0.3-3.8v-11h-2v-2.5h2V361l2.7-2v6.7h2.7v2.5h-2.7v11.2c0,1,0.1,1.7,0.2,2c0.2,0.4,0.7,0.7,1.3,0.7
					C1064.6,382.2,1065,382.1,1065.5,382z"/>
				<path fill="#FFFFFF" d="M1086.6,384.9v-2.4c-0.5,0.9-1.1,1.6-1.9,2.1c-0.8,0.5-1.6,0.7-2.5,0.7c-1.9,0-3.5-0.9-4.8-2.6
					c-1.4-1.8-2-4.2-2-7.4c0-2.2,0.3-4,0.9-5.5c0.6-1.5,1.4-2.6,2.4-3.4c1-0.7,2.1-1.1,3.3-1.1c0.9,0,1.7,0.2,2.4,0.7
					c0.8,0.5,1.4,1.1,1.9,1.9v-9.5h2.7v26.5H1086.6z M1078.2,375.4c0,2.5,0.4,4.3,1.3,5.5c0.9,1.2,1.9,1.8,3,1.8
					c1.1,0,2.1-0.6,2.9-1.7c0.8-1.2,1.2-2.9,1.2-5.2c0-2.7-0.4-4.6-1.2-5.9c-0.8-1.2-1.9-1.9-3.1-1.9c-1.1,0-2.1,0.6-2.9,1.8
					C1078.6,371,1078.2,372.8,1078.2,375.4z"/>
				<path fill="#FFFFFF" d="M1092.3,375.3c0-3.3,0.7-5.8,2.1-7.5c1.4-1.7,3.2-2.5,5.3-2.5c2.1,0,3.8,0.8,5.3,2.5s2.1,4.1,2.1,7.3
					c0,3.4-0.7,6-2.1,7.7c-1.4,1.7-3.2,2.5-5.3,2.5c-2.1,0-3.9-0.8-5.3-2.5C1093,381.1,1092.3,378.6,1092.3,375.3z M1095,375.3
					c0,2.5,0.5,4.3,1.4,5.5c0.9,1.2,2,1.8,3.4,1.8c1.3,0,2.3-0.6,3.2-1.8c0.9-1.2,1.3-3.1,1.3-5.5c0-2.5-0.5-4.3-1.4-5.5
					s-2-1.8-3.4-1.8c-1.3,0-2.3,0.6-3.2,1.8C1095.4,371,1095,372.9,1095,375.3z"/>
				<path fill="#FFFFFF" d="M1110.1,384.9v-26.5h2.7v26.5H1110.1z"/>
				<path fill="#FFFFFF" d="M1115.9,375.3c0-3.3,0.7-5.8,2.1-7.5c1.4-1.7,3.2-2.5,5.3-2.5c2.1,0,3.8,0.8,5.3,2.5s2.1,4.1,2.1,7.3
					c0,3.4-0.7,6-2.1,7.7s-3.1,2.5-5.3,2.5c-2.1,0-3.9-0.8-5.3-2.5S1115.9,378.6,1115.9,375.3z M1118.6,375.3c0,2.5,0.5,4.3,1.4,5.5
					c0.9,1.2,2,1.8,3.4,1.8c1.3,0,2.3-0.6,3.2-1.8s1.3-3.1,1.3-5.5c0-2.5-0.5-4.3-1.4-5.5s-2-1.8-3.4-1.8c-1.3,0-2.3,0.6-3.2,1.8
					S1118.6,372.9,1118.6,375.3z"/>
				<path fill="#FFFFFF" d="M1133.8,384.9v-19.2h2.4v2.9c0.6-1.3,1.2-2.2,1.7-2.7c0.5-0.4,1.1-0.7,1.7-0.7c0.9,0,1.8,0.3,2.7,1
					l-0.9,3c-0.7-0.5-1.3-0.7-1.9-0.7c-0.6,0-1.1,0.2-1.6,0.6c-0.5,0.4-0.8,1-1,1.7c-0.3,1.2-0.5,2.6-0.5,4v10H1133.8z"/>
				<path fill="#FFFFFF" d="M1154.6,378.8l2.7,0.4c-0.5,2-1.3,3.6-2.5,4.6s-2.7,1.6-4.5,1.6c-2.2,0-4-0.8-5.4-2.5s-2.1-4.1-2.1-7.3
					c0-3.3,0.7-5.8,2.1-7.6c1.4-1.7,3.2-2.6,5.3-2.6c2,0,3.7,0.9,5.1,2.6c1.4,1.7,2,4.2,2,7.4l0,0.9h-11.7c0.1,2.2,0.6,3.8,1.5,4.9
					c0.9,1.1,2,1.6,3.3,1.6C1152.4,382.7,1153.8,381.4,1154.6,378.8z M1145.9,373.5h8.8c-0.1-1.7-0.5-2.9-1.1-3.7
					c-0.9-1.2-1.9-1.8-3.3-1.8c-1.2,0-2.2,0.5-3.1,1.5C1146.4,370.5,1145.9,371.8,1145.9,373.5z"/>
				<path fill="#FFFFFF" d="M1169.2,384.9v-19.2h2.4v2.7c0.5-1,1.2-1.8,2-2.3s1.7-0.8,2.7-0.8c1.1,0,2,0.3,2.8,0.9s1.3,1.4,1.6,2.5
					c0.6-1.1,1.4-1.9,2.2-2.5s1.7-0.8,2.7-0.8c1.5,0,2.7,0.5,3.6,1.5c0.9,1,1.3,2.7,1.3,4.9v13.2h-2.7v-12.1c0-1.4-0.1-2.3-0.3-2.9
					c-0.2-0.6-0.5-1-1-1.3s-1-0.5-1.5-0.5c-1.2,0-2.1,0.5-2.8,1.4s-1.1,2.3-1.1,4.3v11.2h-2.7v-12.5c0-1.6-0.2-2.7-0.7-3.4
					c-0.5-0.7-1.2-1-2-1c-1.2,0-2.2,0.5-2.9,1.5c-0.7,1-1.1,2.8-1.1,5.4v10H1169.2z"/>
				<path fill="#FFFFFF" d="M1204.7,382.6c-0.9,0.9-1.8,1.6-2.8,2.1c-1,0.5-2,0.7-3,0.7c-1.6,0-2.9-0.5-3.9-1.5s-1.5-2.3-1.5-4
					c0-1.1,0.2-2.1,0.7-2.9c0.5-0.9,1.1-1.5,1.9-2c0.8-0.5,2-0.8,3.6-1.1c2.2-0.3,3.8-0.7,4.8-1.1l0-0.8c0-1.3-0.2-2.2-0.7-2.8
					c-0.7-0.8-1.7-1.2-3.1-1.2c-1.2,0-2.2,0.3-2.8,0.8c-0.6,0.5-1.1,1.5-1.4,2.9l-2.6-0.4c0.4-2.1,1.1-3.6,2.3-4.5
					c1.1-0.9,2.8-1.4,4.9-1.4c1.7,0,2.9,0.3,3.9,0.9s1.5,1.4,1.8,2.3c0.2,0.9,0.4,2.3,0.4,4v4.3c0,3,0.1,4.9,0.2,5.7
					c0.1,0.8,0.3,1.6,0.7,2.3h-2.8C1205,384.3,1204.8,383.5,1204.7,382.6z M1204.5,375.3c-1,0.5-2.4,0.9-4.4,1.2
					c-1.1,0.2-1.9,0.4-2.3,0.7s-0.8,0.6-1,1c-0.2,0.5-0.4,1-0.4,1.6c0,0.9,0.3,1.6,0.8,2.2c0.6,0.5,1.3,0.8,2.3,0.8
					c1,0,1.8-0.2,2.6-0.7c0.8-0.5,1.4-1.2,1.7-2c0.4-0.8,0.6-2,0.6-3.6V375.3z"/>
				<path fill="#FFFFFF" d="M1210.8,386.5l2.6,0.5c0.1,1,0.5,1.8,1.1,2.3c0.6,0.5,1.4,0.8,2.5,0.8c1.2,0,2.1-0.3,2.8-0.8
					c0.7-0.6,1.2-1.4,1.4-2.5c0.2-0.7,0.2-2.1,0.2-4.3c-0.6,0.8-1.2,1.4-2,1.9s-1.5,0.6-2.4,0.6c-1.9,0-3.4-0.8-4.7-2.4
					c-1.4-1.8-2.1-4.3-2.1-7.4c0-2.1,0.3-3.9,0.9-5.4s1.4-2.7,2.5-3.4c1-0.7,2.2-1.1,3.4-1.1c0.9,0,1.8,0.2,2.5,0.7
					c0.8,0.5,1.4,1.1,2,2v-2.3h2.5v16.6c0,3-0.2,5.1-0.7,6.3c-0.5,1.3-1.3,2.3-2.4,3s-2.4,1.1-4,1.1c-2,0-3.6-0.5-4.7-1.6
					C1211.3,390,1210.8,388.5,1210.8,386.5z M1213,375c0,2.5,0.4,4.4,1.2,5.5s1.9,1.7,3.1,1.7s2.2-0.6,3.1-1.7
					c0.8-1.1,1.3-2.9,1.3-5.4c0-2.4-0.4-4.2-1.3-5.4c-0.9-1.2-1.9-1.8-3.2-1.8c-1.1,0-2.1,0.6-2.9,1.8
					C1213.4,370.9,1213,372.7,1213,375z"/>
				<path fill="#FFFFFF" d="M1228.2,384.9v-19.2h2.4v2.7c0.6-1.1,1.3-1.8,2.1-2.4c0.8-0.5,1.8-0.8,2.9-0.8c0.8,0,1.6,0.2,2.3,0.5
					c0.7,0.3,1.3,0.8,1.7,1.3c0.4,0.5,0.8,1.2,1,2.1c0.2,0.9,0.3,2.2,0.3,3.9v11.8h-2.7v-11.7c0-1.4-0.1-2.4-0.4-3.1
					c-0.2-0.7-0.6-1.2-1.1-1.5s-1.1-0.5-1.8-0.5c-1.3,0-2.3,0.5-3.1,1.4c-0.8,1-1.1,2.6-1.1,4.9v10.5H1228.2z"/>
				<path fill="#FFFFFF" d="M1255.3,382.6c-0.9,0.9-1.8,1.6-2.8,2.1c-1,0.5-2,0.7-3,0.7c-1.6,0-2.9-0.5-3.9-1.5s-1.5-2.3-1.5-4
					c0-1.1,0.2-2.1,0.7-2.9c0.5-0.9,1.1-1.5,1.9-2c0.8-0.5,2-0.8,3.6-1.1c2.2-0.3,3.8-0.7,4.8-1.1l0-0.8c0-1.3-0.2-2.2-0.7-2.8
					c-0.7-0.8-1.7-1.2-3.1-1.2c-1.2,0-2.2,0.3-2.8,0.8c-0.6,0.5-1.1,1.5-1.4,2.9l-2.6-0.4c0.4-2.1,1.1-3.6,2.3-4.5
					c1.1-0.9,2.8-1.4,4.9-1.4c1.7,0,2.9,0.3,3.9,0.9s1.5,1.4,1.8,2.3c0.2,0.9,0.4,2.3,0.4,4v4.3c0,3,0.1,4.9,0.2,5.7
					c0.1,0.8,0.3,1.6,0.7,2.3h-2.8C1255.6,384.3,1255.4,383.5,1255.3,382.6z M1255.1,375.3c-1,0.5-2.4,0.9-4.4,1.2
					c-1.1,0.2-1.9,0.4-2.3,0.7s-0.8,0.6-1,1c-0.2,0.5-0.4,1-0.4,1.6c0,0.9,0.3,1.6,0.8,2.2c0.6,0.5,1.3,0.8,2.3,0.8
					c1,0,1.8-0.2,2.6-0.7c0.8-0.5,1.4-1.2,1.7-2c0.4-0.8,0.6-2,0.6-3.6V375.3z"/>
				<path fill="#FFFFFF" d="M1280.6,382.6c-0.9,0.9-1.8,1.6-2.8,2.1c-1,0.5-2,0.7-3,0.7c-1.6,0-2.9-0.5-3.9-1.5s-1.5-2.3-1.5-4
					c0-1.1,0.2-2.1,0.7-2.9s1.1-1.5,1.9-2c0.8-0.5,2-0.8,3.6-1.1c2.2-0.3,3.8-0.7,4.8-1.1l0-0.8c0-1.3-0.2-2.2-0.7-2.8
					c-0.7-0.8-1.7-1.2-3.1-1.2c-1.2,0-2.2,0.3-2.8,0.8c-0.6,0.5-1.1,1.5-1.4,2.9l-2.6-0.4c0.4-2.1,1.1-3.6,2.3-4.5
					c1.1-0.9,2.8-1.4,4.9-1.4c1.6,0,2.9,0.3,3.9,0.9s1.5,1.4,1.8,2.3c0.2,0.9,0.4,2.3,0.4,4v4.3c0,3,0.1,4.9,0.2,5.7
					c0.1,0.8,0.3,1.6,0.7,2.3h-2.8C1280.9,384.3,1280.7,383.5,1280.6,382.6z M1280.4,375.3c-1,0.5-2.4,0.9-4.4,1.2
					c-1.1,0.2-1.9,0.4-2.3,0.7c-0.4,0.2-0.8,0.6-1,1c-0.2,0.5-0.4,1-0.4,1.6c0,0.9,0.3,1.6,0.8,2.2s1.3,0.8,2.3,0.8
					c1,0,1.8-0.2,2.6-0.7c0.8-0.5,1.4-1.2,1.7-2c0.4-0.8,0.6-2,0.6-3.6V375.3z"/>
				<path fill="#FFFFFF" d="M1287.2,384.9v-26.5h2.7v26.5H1287.2z"/>
				<path fill="#FFFFFF" d="M1294,362.2v-3.7h2.7v3.7H1294z M1294,384.9v-19.2h2.7v19.2H1294z"/>
				<path fill="#FFFFFF" d="M1310.7,392.3v-9.4c-0.4,0.7-1,1.3-1.8,1.8s-1.5,0.7-2.3,0.7c-1.9,0-3.5-0.9-4.9-2.7s-2.1-4.3-2.1-7.5
					c0-2.8,0.6-5.2,1.7-7s2.8-2.8,4.9-2.8c1,0,1.8,0.3,2.6,0.8s1.4,1.2,2,2.2v-2.6h2.4v26.5H1310.7z M1302.5,375.3
					c0,2.5,0.4,4.4,1.3,5.6c0.9,1.2,1.9,1.8,3.1,1.8c1.1,0,2-0.6,2.9-1.8c0.8-1.2,1.2-2.9,1.2-5.2c0-2.6-0.4-4.6-1.3-5.9
					c-0.9-1.3-1.9-1.9-3.1-1.9c-1.1,0-2.1,0.6-2.9,1.8C1302.9,370.9,1302.5,372.7,1302.5,375.3z"/>
				<path fill="#FFFFFF" d="M1327.9,384.9v-2.8c-0.6,1.1-1.3,1.9-2.2,2.4c-0.8,0.5-1.8,0.8-2.8,0.8c-1.2,0-2.3-0.3-3.2-1
					c-0.9-0.7-1.5-1.5-1.8-2.5s-0.4-2.4-0.4-4.2v-11.9h2.7v10.6c0,2,0.1,3.3,0.3,4c0.2,0.7,0.6,1.2,1.1,1.6s1.1,0.6,1.8,0.6
					c1.3,0,2.3-0.5,3.1-1.6c0.7-0.9,1-2.6,1-5v-10.3h2.7v19.2H1327.9z"/>
				<path fill="#FFFFFF" d="M1344.7,382.6c-0.9,0.9-1.8,1.6-2.8,2.1c-1,0.5-2,0.7-3,0.7c-1.6,0-2.9-0.5-3.9-1.5s-1.5-2.3-1.5-4
					c0-1.1,0.2-2.1,0.7-2.9s1.1-1.5,1.9-2c0.8-0.5,2-0.8,3.6-1.1c2.2-0.3,3.8-0.7,4.8-1.1l0-0.8c0-1.3-0.2-2.2-0.7-2.8
					c-0.7-0.8-1.7-1.2-3.1-1.2c-1.2,0-2.2,0.3-2.8,0.8c-0.6,0.5-1.1,1.5-1.4,2.9l-2.6-0.4c0.4-2.1,1.1-3.6,2.3-4.5
					c1.1-0.9,2.8-1.4,4.9-1.4c1.6,0,2.9,0.3,3.9,0.9s1.5,1.4,1.8,2.3c0.2,0.9,0.4,2.3,0.4,4v4.3c0,3,0.1,4.9,0.2,5.7
					c0.1,0.8,0.3,1.6,0.7,2.3h-2.8C1345,384.3,1344.8,383.5,1344.7,382.6z M1344.5,375.3c-1,0.5-2.4,0.9-4.4,1.2
					c-1.1,0.2-1.9,0.4-2.3,0.7c-0.4,0.2-0.8,0.6-1,1c-0.2,0.5-0.4,1-0.4,1.6c0,0.9,0.3,1.6,0.8,2.2s1.3,0.8,2.3,0.8
					c1,0,1.8-0.2,2.6-0.7c0.8-0.5,1.4-1.2,1.7-2c0.4-0.8,0.6-2,0.6-3.6V375.3z"/>
				<path fill="#FFFFFF" d="M1352.2,384.9v-3.7h3v3.7H1352.2z"/>
			</g>
			<rect x="534.9" y="292.9" fill="#FFFFFF" width="1202.2" height="6"/>
		</g>
	</g>
</g>
</svg>
